<?xml version="1.0" encoding="UTF-8" standalone="no"?>
<svg
   viewBox="0 0 512 512"
   version="1.1"
   id="svg4"
   width="512"
   height="512"
   sodipodi:docname="icon.svg"
   inkscape:export-filename="icon.png"
   inkscape:export-xdpi="48"
   inkscape:export-ydpi="48"
   inkscape:version="1.2.2 (732a01da63, 2022-12-09)"
   xmlns:inkscape="http://www.inkscape.org/namespaces/inkscape"
   xmlns:sodipodi="http://sodipodi.sourceforge.net/DTD/sodipodi-0.dtd"
   xmlns:xlink="http://www.w3.org/1999/xlink"
   xmlns="http://www.w3.org/2000/svg"
   xmlns:svg="http://www.w3.org/2000/svg">
  <sodipodi:namedview
     id="namedview33"
     pagecolor="#ffffff"
     bordercolor="#000000"
     borderopacity="0.25"
     inkscape:showpageshadow="2"
     inkscape:pageopacity="0.0"
     inkscape:pagecheckerboard="0"
     inkscape:deskcolor="#d1d1d1"
     showgrid="false"
     inkscape:zoom="1.6523438"
     inkscape:cx="256.3026"
     inkscape:cy="256.3026"
     inkscape:window-width="1920"
     inkscape:window-height="1026"
     inkscape:window-x="-8"
     inkscape:window-y="-8"
     inkscape:window-maximized="1"
     inkscape:current-layer="svg4" />
  <defs
     id="defs8">
    <linearGradient
       id="linearGradient7078">
      <stop
         style="stop-color:#ffffff;stop-opacity:0.5;"
         offset="0"
         id="stop7074" />
      <stop
         style="stop-color:#ffffff;stop-opacity:0;"
         offset="0.53513515"
         id="stop7076" />
    </linearGradient>
    <linearGradient
       id="linearGradient7060">
      <stop
         style="stop-color:#ffffff;stop-opacity:0;"
         offset="0"
         id="stop7058" />
      <stop
         style="stop-color:#ffffff;stop-opacity:1;"
         offset="0.64594597"
         id="stop7056" />
    </linearGradient>
    <linearGradient
       id="linearGradient7047">
      <stop
         style="stop-color:#ffffff;stop-opacity:1;"
         offset="0.36216217"
         id="stop7043" />
      <stop
         style="stop-color:#ffffff;stop-opacity:0.40000001;"
         offset="1"
         id="stop7045" />
    </linearGradient>
    <linearGradient
       xlink:href="#linearGradient7047"
       id="linearGradient7049"
       x1="269.96896"
       y1="145.55521"
       x2="364.71295"
       y2="145.55521"
       gradientUnits="userSpaceOnUse"
       gradientTransform="matrix(2.0531893,0,0,2.0531893,-293.82475,-8.786963)" />
    <linearGradient
       xlink:href="#linearGradient7060"
       id="linearGradient7062"
       x1="56.999157"
       y1="49.999966"
       x2="289.32001"
       y2="290.33899"
       gradientUnits="userSpaceOnUse" />
    <linearGradient
       xlink:href="#linearGradient7078"
       id="linearGradient7080"
       x1="238.20203"
       y1="209.19382"
       x2="81.857002"
       y2="77.658005"
       gradientUnits="userSpaceOnUse" />
  </defs>
  <rect
     style="display:inline;fill:#241f31;stroke-width:20;stop-color:#000000"
     id="rect504"
     width="512"
     height="512"
     x="0"
     y="0" />
  <path
     id="path7134"
     style="font-variation-settings:normal;display:none;opacity:1;vector-effect:none;fill:#241f31;fill-opacity:1;stroke:#ffffff;stroke-width:20;stroke-linecap:butt;stroke-linejoin:miter;stroke-miterlimit:4;stroke-dasharray:none;stroke-dashoffset:0;stroke-opacity:1;-inkscape-stroke:none;stop-color:#000000;stop-opacity:1"
     d="m 254.37706,10.004975 c -33.43328,0.255822 -66.81028,7.34244 -97.4115,20.827916 -31.08328,13.659897 -59.291431,33.82707 -82.224224,58.868149 -24.014879,26.17785 -42.291035,57.60092 -53.07629,91.45315 -11.059769,34.55628 -14.3338672,71.5768 -9.479504,107.53497 3.952578,29.57592 13.350738,58.40876 27.583622,84.63455 16.242755,29.94267 38.771466,56.46038 65.740746,77.27565 27.91128,21.60861 60.52647,37.1081 94.92251,45.04924 33.73355,7.834 69.1248,8.43179 103.10036,1.71864 31.42244,-6.17589 61.60229,-18.57547 88.29869,-36.26135 28.56669,-18.90718 53.1157,-43.85244 71.52404,-72.7446 18.00874,-28.15622 30.15875,-60.03234 35.47492,-93.02959 4.98055,-30.74697 4.09734,-62.44161 -2.71124,-92.84151 -7.58052,-34.00832 -22.44884,-66.3835 -43.41175,-94.22295 C 434.15618,83.548142 410.89193,62.384406 384.53229,46.247521 356.12056,28.829122 324.13867,17.263816 291.14823,12.528223 278.97776,10.76422 266.67442,9.926968 254.37706,10.004975 Z" />
  <path
     fill="#fff"
     d="M 263.09,50 C 251.208,49.993 239.215,51.018 227.233,53.13 142.026,68.156 75.156,135.026 60.13,220.233 45.108,305.44 85.075,391.15 160.005,434.41 c 32.782,18.927 69.254,27.996 105.463,27.553 46.555,-0.57 92.675,-16.865 129.957,-48.15 L 364.57,377.045 c -50.95,42.75 -122.968,49.05 -180.566,15.797 -57.597,-33.254 -88.152,-98.777 -76.603,-164.274 11.55,-65.497 62.672,-116.62 128.17,-128.168 51.656,-9.108 103.323,7.98 139.17,43.862 L 327,192 H 455 V 64 l -46.34,46.342 C 370.242,71.962 317.83,50.03 263.09,50 Z"
     id="path2"
     style="display:inline;fill:url(#linearGradient7080);fill-opacity:1" />
  <path
     d="M 136.891,38.195003 26.823004,117.121 122.6,146.216 233.905,59.126003 l -97.014,-20.93 z m 112.986,31.082 -118.047,89.959997 51.07,131.102 8.534,-7.455 4.23,-15.708 c -5.89553,-3.84102 -9.65364,-12.30505 -9.08,-20.45 0.56217,-7.89422 5.06042,-13.50916 10.997,-13.727 1.19427,-0.0437 2.41203,0.13458 3.62,0.53 1.06122,0.35345 2.10625,0.87177 3.113,1.544 l 7.94,-29.48 c 0.0964,-0.35353 0.21427,-0.70084 0.353,-1.04 0.019,-0.0428 0.0383,-0.0855 0.058,-0.128 0.097,-0.23271 0.20379,-0.46125 0.32,-0.685 0.0295,-0.0513 0.0595,-0.1023 0.09,-0.153 0.11487,-0.21323 0.23831,-0.42173 0.37,-0.625 0.16585,-0.24974 0.34407,-0.49104 0.534,-0.723 0.0219,-0.0248 0.0439,-0.0495 0.066,-0.074 0.17108,-0.20593 0.35125,-0.40413 0.54,-0.594 0.20687,-0.20815 0.42379,-0.40605 0.65,-0.593 l 0.004,-0.002 c 0.14966,-0.11886 0.30307,-0.23291 0.46,-0.342 0.0875,-0.0673 0.17613,-0.13297 0.266,-0.197 0.16404,-0.10541 0.33146,-0.20546 0.502,-0.3 0.0891,-0.0539 0.1791,-0.10623 0.27,-0.157 0.14476,-0.0733 0.29149,-0.14265 0.44,-0.208 0.12527,-0.0623 0.25197,-0.12163 0.38,-0.178 0.14434,-0.0544 0.29005,-0.10509 0.437,-0.152 0.1355,-0.051 0.2722,-0.0986 0.41,-0.143 0.13388,-0.0364 0.26858,-0.0698 0.404,-0.1 0.15562,-0.0422 0.31234,-0.0802 0.47,-0.114 0.1693,-0.0282 0.33937,-0.0515 0.51,-0.07 0.12297,-0.0192 0.24633,-0.0359 0.37,-0.05 h 0.01 l 0.01,-0.003 33.624,-2.873 c 1.56804,-5.84774 5.52219,-9.59166 10.326,-9.777 1.19491,-0.044 2.41336,0.13433 3.622,0.53 3.25964,1.07708 6.2923,3.68296 8.527,7.327 L 289.32,193.056 249.878,69.273003 Z m -114.534,7.606 c 8.72378,0.181477 14.076,3.834107 12.798,8.733997 -1.48224,5.68808 -11.30418,11.05975 -21.938,11.998 -10.63493,0.93827 -18.05395,-2.91317 -16.57,-8.602 1.4803,-5.68858 11.30285,-11.06148 21.938,-12 1.28423,-0.112589 2.54719,-0.156139 3.77,-0.129997 z M 235.571,100.4 h 0.002 c 1.19427,-0.0437 2.41203,0.13458 3.62,0.53 7.38041,2.41475 12.803,12.23737 12.112,21.94 -0.69156,9.70336 -7.23596,15.61154 -14.617,13.196 -7.38108,-2.41351 -12.80478,-12.23653 -12.114,-21.94 0.56253,-7.89425 5.06122,-13.50881 10.998,-13.726 z m -213.257996,34.163 46.992,114.124 94.235996,40.38 -45.988,-125.57 -95.239996,-28.935 z M 170.199,151.993 c 1.19484,-0.0446 2.41329,0.13298 3.622,0.528 7.37973,2.41598 12.80121,12.23821 12.11,21.94 -0.69126,9.70317 -7.23511,15.61171 -14.616,13.197 -7.38041,-2.41475 -12.803,-12.23737 -12.112,-21.94 0.56244,-7.89329 5.06011,-13.50761 10.996,-13.726 z m -75.123,13.016 c 5.13487,-0.2797 12.46404,6.23809 16.955,15.078 4.82959,9.50493 4.63931,18.2288 -0.425,19.485 -5.06511,1.25387 -13.08488,-5.43442 -17.913,-14.939 -4.82634,-9.50129 -4.63654,-18.22106 0.424,-19.48 0.30593,-0.0769 0.62633,-0.12499 0.96,-0.144 z m -26.162996,49.866 c 5.134856,-0.28148 12.465393,6.23676 16.957,15.078 4.828986,9.50432 4.638706,18.22742 -0.425,19.484 -5.064866,1.25433 -13.08463,-5.4335 -17.913,-14.938 -4.827774,-9.50309 -4.637513,-18.22466 0.425,-19.482 0.306012,-0.0755 0.626412,-0.12222 0.96,-0.14 z"
     style="display:inline;fill:url(#linearGradient7062);fill-opacity:1"
     id="path1296" />
  <path
     d="m 360.376,202.3655 -112.102,9.577 113.762,79.926 113.598,-16.956 -115.258,-72.55 z m -132.178,17.469 -41.538,154.188 115.616,99.454 47.147,-168.47 -121.225,-85.17 z m 126.987,11.168 c 6.29949,0.11683 13.66863,1.90663 19.693,4.783 10.0775,4.81267 13.48327,11.18993 7.607,14.244 -5.87463,3.05496 -18.80747,1.63032 -28.886,-3.182 -10.07765,-4.81224 -13.4847,-11.18938 -7.61,-14.244 2.14425,-1.1142 5.34926,-1.6719 9.195,-1.6 z m 132.595,60.297 -120.88,18.043 -46.823,167.316 116.297,-31.77 z m -181.808,10.8 c 1.41224,0.002 2.83789,0.31885 4.238,0.943 8.55458,3.81703 14.31815,18.01888 12.873,31.72 -1.44552,13.69974 -9.55123,21.71054 -18.105,17.893 -8.55494,-3.81631 -14.31905,-18.01838 -12.874,-31.72 1.17648,-11.14417 6.84875,-18.84844 13.868,-18.836 z m 154.086,11.636 c 3.26287,-0.0966 5.96713,1.35901 7.673,4.13 4.17306,6.78098 1.40797,19.51175 -6.176,28.435 -7.58383,8.92229 -17.11407,10.65848 -21.287,3.878 -4.17294,-6.78061 -1.40836,-19.51067 6.175,-28.434 4.19094,-4.93008 9.20512,-7.87908 13.616,-8.008 z m -68.696,10.664 c 3.26242,-0.0962 5.96631,1.35931 7.672,4.13 4.17306,6.78098 1.40797,19.51175 -6.176,28.435 -7.58406,8.92225 -17.11437,10.658 -21.287,3.877 -4.17202,-6.78148 -1.40657,-19.51141 6.177,-28.434 4.1906,-4.92969 9.20434,-7.87865 13.615,-8.008 z m -173.996,13.305 c 1.41295,0.002 2.83929,0.31989 4.24,0.945 8.55422,3.81776 14.31725,18.01938 12.872,31.72 -1.44515,13.70103 -9.55164,21.7126 -18.106,17.894 -8.55458,-3.81703 -14.31815,-18.01888 -12.873,-31.72 1.17536,-11.14472 6.84683,-18.85065 13.866,-18.84 z m 212.278,60.87 c 3.26154,-0.0956 5.96466,1.35992 7.67,4.13 4.1734,6.78018 1.40926,19.5103 -6.174,28.434 -7.58428,8.92221 -17.11466,10.65753 -21.287,3.876 -4.17294,-6.78061 -1.40836,-19.51067 6.175,-28.434 4.19094,-4.93008 9.20512,-7.87908 13.616,-8.008 z m -70.332,19.488 c 3.26181,-0.0952 5.96495,1.36102 7.67,4.132 4.1734,6.78018 1.40926,19.5103 -6.174,28.434 -7.58472,8.92212 -17.11526,10.65657 -21.287,3.874 -4.17248,-6.78105 -1.40747,-19.51104 6.176,-28.434 4.19107,-4.92982 9.20525,-7.87845 13.616,-8.007 z"
     fill="#ffffff"
     fill-opacity="1"
     id="path237"
     style="display:none" />
  <g
     id="layer1"
     transform="matrix(1.1552626,0,0,1.1552626,-43.011884,-107.29684)"
     style="display:none;stroke-width:0.865604">
    <polyline
       class="Stem"
       fill="none"
       stroke="#000000"
       stroke-width="1.30821"
       stroke-linejoin="bevel"
       points="1991.09,630.23 1991.09,572.198"
       id="polyline244"
       transform="matrix(1.6409435,0,0,1.6409435,-3015.9503,-642.38501)"
       style="fill:#ffffff;fill-opacity:1;stroke:#ffffff;stroke-width:2.11002;stroke-dasharray:none;stroke-opacity:1" />
    <polyline
       class="Stem"
       fill="none"
       stroke="#000000"
       stroke-width="1.30821"
       stroke-linejoin="bevel"
       points="2045.24,630.23 2045.24,572.198"
       id="polyline266"
       transform="matrix(1.6409435,0,0,1.6409435,-3015.9503,-642.38501)"
       style="fill:#ffffff;fill-opacity:1;stroke:#ffffff;stroke-width:2.11002;stroke-dasharray:none;stroke-opacity:1" />
    <polyline
       class="Stem"
       fill="none"
       stroke="#000000"
       stroke-width="1.30821"
       stroke-linejoin="bevel"
       points="2099.39,630.23 2099.39,572.198"
       id="polyline268"
       transform="matrix(1.6409435,0,0,1.6409435,-3015.9503,-642.38501)"
       style="fill:#ffffff;fill-opacity:1;stroke:#ffffff;stroke-width:2.11002;stroke-dasharray:none;stroke-opacity:1" />
    <path
       class="Note"
       d="m 289.32,405.14 c 0,6.99451 5.03606,14.80299 18.23663,14.80299 16.91402,0 34.66739,-13.83647 34.66739,-28.15618 0,-9.61429 -8.13908,-14.98095 -18.23663,-14.98095 -15.7949,0 -34.66739,13.35313 -34.66739,28.33414"
       id="path308"
       style="fill:#ffffff;fill-opacity:1;stroke-width:0.858679" />
    <path
       class="Note"
       d="m 378.17709,405.14 c 0,6.99451 5.03606,14.80299 18.23663,14.80299 16.91402,0 34.66739,-13.83647 34.66739,-28.15618 0,-9.61429 -8.13908,-14.98095 -18.23663,-14.98095 -15.7949,0 -34.66739,13.35313 -34.66739,28.33414"
       id="path324"
       style="fill:#ffffff;fill-opacity:1;stroke-width:0.858679" />
    <path
       class="Note"
       d="m 200.46291,405.14 c 0,6.99451 5.03606,14.80299 18.23663,14.80299 16.91402,0 34.66739,-13.83647 34.66739,-28.15618 0,-9.61429 -8.13908,-14.98095 -18.23663,-14.98095 -15.7949,0 -34.66739,13.35313 -34.66739,28.33414"
       id="path386"
       style="fill:#ffffff;fill-opacity:1;stroke-width:0.858679" />
    <path
       class="Beam"
       fill-rule="evenodd"
       d="M 249.28098,286.38573 H 431.0647 v 20.34769 H 249.28098 v -20.34769"
       id="path460"
       style="fill:#ffffff;fill-opacity:1;stroke-width:0.865604" />
  </g>
  <path
     id="polyline274"
     style="color:#000000;fill:url(#linearGradient7049);fill-opacity:1;stroke-width:1;stroke-linejoin:bevel;-inkscape-stroke:none"
     d="m 319.24415,215.78125 v 25.459 95.44724 c -4.05349,-2.82486 -9.45256,-4.31249 -15.39455,-4.31249 -19.76289,0 -43.37695,16.70854 -43.37695,35.45313 0,8.7517 6.30155,18.52148 22.81837,18.52148 21.16337,0 43.37695,-17.31139 43.37695,-35.22852 0,-0.16097 -0.008,-0.31755 -0.0123,-0.47655 h 0.0123 V 241.24025 H 447.5586 v 12.73047 h -48.58595 v 25.45897 h 48.58595 v 57.24413 c -4.05143,-2.81657 -9.44395,-4.29882 -15.37697,-4.29882 -19.76289,0 -43.37695,16.70854 -43.37695,35.45313 0,8.7517 6.30155,18.52148 22.81837,18.52148 21.16337,0 43.37695,-17.31139 43.37695,-35.22852 0,-0.22555 -0.0103,-0.44616 -0.0185,-0.66797 v -71.02343 h 0.002 v -25.45897 h -0.002 v -12.73047 h 0.002 v -25.459 z m 38.49218,118.84765 c -5.69657,0 -10.18359,4.48702 -10.18359,10.1836 0,5.69657 4.48702,10.18359 10.18359,10.18359 5.69656,0 10.1836,-4.48702 10.1836,-10.18359 0,-5.69658 -4.48704,-10.1836 -10.1836,-10.1836 z" />
  <g
     id="g7054"
     transform="matrix(0.97064793,0,0,0.97064793,6.947615,4.2749223)"
     style="stroke-width:1.03024">
    <path
       class="TimeSig"
       d="m 260.05439,259.07987 v 8.90173 h -9.99323 c -0.84684,0 -1.69368,0.73389 -1.69368,1.69371 v 2.29605 c 0,0.95972 0.84684,1.67491 1.69368,1.67491 h 36.49115 c 0.97862,0 1.69369,-0.71519 1.69369,-1.67491 v -2.29605 c 0,-0.95982 -0.71507,-1.69371 -1.69369,-1.69371 H 275.844 v -8.90173 h 10.70831 c 0.97862,0 1.69369,-0.84683 1.69369,-1.80665 v -2.29597 c 0,-0.84687 -0.71507,-1.67494 -1.69369,-1.67494 H 275.844 v -19.1583 c 0,-0.71515 -0.35758,-1.31736 -0.95982,-1.56201 l -1.44908,-0.73397 c -0.2448,-0.11291 -0.60221,-0.22585 -0.84696,-0.22585 -0.35749,0.11291 -0.84685,0.22585 -1.09148,0.47056 l -10.95303,9.99318 c -0.35749,0.37638 -0.48924,0.84686 -0.48924,1.33617 v 9.88026 h -13.85124 c 0,0 13.38078,-14.45341 27.58944,-33.49884 0.48938,-0.60223 0.60223,-1.20444 0.60223,-1.6749 0,-0.60224 -0.24455,-1.09147 -0.35748,-1.20445 l -2.65366,-2.65353 c -0.24455,-0.24455 -0.71509,-0.48938 -1.20445,-0.48938 -0.71508,0 -16.99395,0 -17.82202,0 -0.97862,0 -1.58083,0.73398 -1.69381,1.4492 0,0 -0.60224,8.9204 -3.72628,18.66895 -3.14285,9.76735 -6.75621,15.78961 -9.88024,20.23103 0,0 -0.35758,0.60221 -0.35758,1.33617 0,0.24456 0,0.47056 0.11291,0.71519 0.48931,0.84685 1.20445,2.16428 1.20445,2.16428 0,0 0.24455,0.73386 1.31735,0.73386 h 20.72037"
       id="path398"
       style="fill:#ffffff;fill-opacity:1;stroke-width:0.497605;stroke-dasharray:none" />
    <path
       class="TimeSig"
       d="m 260.05439,318.9449 v 8.90173 h -9.99323 c -0.84684,0 -1.69368,0.73388 -1.69368,1.6937 v 2.29605 c 0,0.95972 0.84684,1.67491 1.69368,1.67491 h 36.49115 c 0.97862,0 1.69369,-0.71519 1.69369,-1.67491 v -2.29605 c 0,-0.95982 -0.71507,-1.6937 -1.69369,-1.6937 H 275.844 v -8.90173 h 10.70831 c 0.97862,0 1.69369,-0.84684 1.69369,-1.80666 v -2.29598 c 0,-0.84686 -0.71507,-1.67492 -1.69369,-1.67492 H 275.844 v -19.15831 c 0,-0.71515 -0.35758,-1.31736 -0.95982,-1.56201 l -1.44908,-0.73397 c -0.2448,-0.11291 -0.60221,-0.22585 -0.84696,-0.22585 -0.35749,0.11291 -0.84685,0.22585 -1.09148,0.47056 l -10.95303,9.99318 c -0.35749,0.37637 -0.48924,0.84686 -0.48924,1.33617 v 9.88028 h -13.85124 c 0,0 13.38078,-14.45343 27.58944,-33.49885 0.48938,-0.60223 0.60223,-1.20445 0.60223,-1.67491 0,-0.60224 -0.24455,-1.09147 -0.35748,-1.20445 l -2.65366,-2.65352 c -0.24455,-0.24456 -0.71509,-0.48939 -1.20445,-0.48939 -0.71508,0 -16.99395,0 -17.82202,0 -0.97862,0 -1.58083,0.73398 -1.69381,1.44921 0,0 -0.60224,8.92039 -3.72628,18.66894 -3.14285,9.76735 -6.75621,15.78961 -9.88024,20.23103 0,0 -0.35758,0.60221 -0.35758,1.33617 0,0.24456 0,0.47056 0.11291,0.71519 0.48931,0.84685 1.20445,2.16428 1.20445,2.16428 0,0 0.24455,0.73386 1.31735,0.73386 h 20.72037"
       id="path400"
       style="fill:#ffffff;fill-opacity:1;stroke-width:0.497605;stroke-dasharray:none" />
  </g>
</svg>
