<?xml version="1.0" encoding="UTF-8" standalone="no"?>
<svg
   width="36.998505"
   height="26.784119"
   viewBox="0 0 36.998505 26.784119"
   version="1.2"
   id="svg520"
   xmlns="http://www.w3.org/2000/svg"
   xmlns:svg="http://www.w3.org/2000/svg">
  <defs
     id="defs524" />
  <title
     id="title132">Beat Random Notes</title>
  <desc
     id="desc134">Generated by MuseScore 4.0.2</desc>
  <path
     class="Note"
     d="M 18.553473,1.2743536e-5 C 4.8669934,1.2743536e-5 -6.6170537e-6,6.9440627 -6.6170537e-6,13.392063 c 0,6.448 4.8670000170537,13.39205 18.5534796170537,13.39205 13.68652,0 18.44504,-6.94405 18.44504,-13.39205 0,-6.4480003 -4.75852,-13.392050256464 -18.44504,-13.392050256464 M 19.343993,23.606543 c -2.77452,0 -4.66548,-0.79048 -5.952,-3.27048 -1.28652,-2.48 -3.06895,-8.928 -3.17748,-11.5165003 -0.20147,-2.6815 0.79053,-4.2625 3.17748,-5.053 1.19348,-0.40298 2.77452,-0.60455 4.37105,-0.60455 2.666,0 4.464,0.60455 5.84347,3.28605 1.39496,2.573 3.286,9.0210003 3.286,11.5010003 0,4.867 -3.58052,5.65748 -7.54852,5.65748"
     id="path310"
     style="stroke-width:0.992" />
</svg>
