<?xml version="1.0" encoding="UTF-8" standalone="no"?>
<svg
   width="54.560059"
   height="79.359985"
   viewBox="0 0 54.560059 79.359987"
   version="1.2"
   id="svg520"
   xmlns="http://www.w3.org/2000/svg"
   xmlns:svg="http://www.w3.org/2000/svg">
  <defs
     id="defs524" />
  <title
     id="title132">Beat Random Notes</title>
  <desc
     id="desc134">Generated by MuseScore 4.0.2</desc>
  <polyline
     class="Stem"
     fill="none"
     stroke="#000000"
     stroke-width="2.48"
     stroke-linejoin="bevel"
     points="2153.54,630.23 2153.54,572.198"
     id="polyline270"
     transform="translate(-2122.54,-572.19798)" />
  <path
     class="Note"
     d="m 21.126496,48.902535 c -9.6255,0 -21.1265002513857,8.04448 -21.1265002513857,17.26698 0,4.2625 3.0689999513857,9.02102 11.1135002513857,9.02102 10.3075,0 21.1265,-8.43202 21.1265,-17.15852 0,-5.859 -4.96,-9.12948 -11.1135,-9.12948 M 7.4399957,70.525015 c -3.2705,0 -3.968,-2.666 -3.968,-3.565 0,-4.867 16.6625003,-13.392 21.3280003,-13.392 2.387,0 3.968,1.395 3.968,3.565 0,4.96 -16.771,13.392 -21.3280003,13.392"
     id="path378"
     style="stroke-width:0.992" />
  <path
     class="NoteDot"
     d="m 44.639996,74.400015 c 0,2.7745 2.1855,4.96 4.96,4.96 2.7745,0 4.96,-2.1855 4.96,-4.96 0,-2.7745 -2.1855,-4.96 -4.96,-4.96 -2.7745,0 -4.96,2.1855 -4.96,4.96"
     id="path514"
     style="stroke-width:0.992" />
</svg>
