<?xml version="1.0" encoding="UTF-8" standalone="no"?>
<svg
   width="169.52002"
   height="93.790527"
   viewBox="0 0 169.52002 93.79053"
   version="1.2"
   id="svg520"
   xmlns="http://www.w3.org/2000/svg"
   xmlns:svg="http://www.w3.org/2000/svg">
  <defs
     id="defs524" />
  <title
     id="title132">Beat Random Notes</title>
  <desc
     id="desc134">Generated by MuseScore 4.0.2</desc>
  <polyline
     class="Stem"
     fill="none"
     stroke="#000000"
     stroke-width="2.48"
     stroke-linejoin="bevel"
     points="1238.53,630.23 1238.53,559.798"
     id="polyline238"
     transform="translate(-1207.54,-553.59801)" />
  <polyline
     class="Stem"
     fill="none"
     stroke="#000000"
     stroke-width="2.48"
     stroke-linejoin="bevel"
     points="1284.29,630.23 1284.29,559.798"
     id="polyline240"
     transform="translate(-1207.54,-553.59801)" />
  <polyline
     class="Stem"
     fill="none"
     stroke="#000000"
     stroke-width="2.48"
     stroke-linejoin="bevel"
     points="1330.05,630.23 1330.05,559.798"
     id="polyline242"
     transform="translate(-1207.54,-553.59801)" />
  <polyline
     class="Stem"
     fill="none"
     stroke="#000000"
     stroke-width="2.48"
     stroke-linejoin="bevel"
     points="1375.81,630.23 1375.81,559.798"
     id="polyline246"
     transform="translate(-1207.54,-553.59801)" />
  <path
     class="Note"
     d="m -1.9258014e-5,84.76949 c 0,4.2625 3.068999958014,9.02102 11.113500258014,9.02102 10.3075,0 21.1265,-8.43202 21.1265,-17.15852 0,-5.859 -4.96,-9.12948 -11.1135,-9.12948 -9.6255,0 -21.126500258014,8.13748 -21.126500258014,17.26698"
     id="path346"
     style="stroke-width:0.992" />
  <path
     class="Note"
     d="m 45.759981,84.76949 c 0,4.2625 3.069,9.02102 11.1135,9.02102 10.3075,0 21.1265,-8.43202 21.1265,-17.15852 0,-5.859 -4.96,-9.12948 -11.1135,-9.12948 -9.6255,0 -21.1265,8.13748 -21.1265,17.26698"
     id="path350"
     style="stroke-width:0.992" />
  <path
     class="Note"
     d="m 137.27998,84.76949 c 0,4.2625 3.069,9.02102 11.1135,9.02102 10.3075,0 21.1265,-8.43202 21.1265,-17.15852 0,-5.859 -4.96,-9.12948 -11.1135,-9.12948 -9.6255,0 -21.1265,8.13748 -21.1265,17.26698"
     id="path366"
     style="stroke-width:0.992" />
  <path
     class="Note"
     d="m 91.519981,84.76949 c 0,4.2625 3.069,9.02102 11.113499,9.02102 10.3075,0 21.1265,-8.43202 21.1265,-17.15852 0,-5.859 -4.96,-9.12948 -11.1135,-9.12948 -9.6255,0 -21.126499,8.13748 -21.126499,17.26698"
     id="path384"
     style="stroke-width:0.992" />
  <path
     class="Beam"
     fill-rule="evenodd"
     d="M 29.749981,-9.6146523e-6 H 169.50998 V 12.39999 H 29.749981 V -9.6146523e-6"
     id="path480" />
  <path
     class="Beam"
     fill-rule="evenodd"
     d="M 29.749981,18.59999 H 169.50998 v 12.4 H 29.749981 v -12.4"
     id="path482" />
</svg>
