<?xml version="1.0" encoding="UTF-8" standalone="no"?>
<svg
   width="116.6535"
   height="105.896"
   viewBox="0 0 116.65351 105.896"
   version="1.2"
   id="svg520"
   xmlns="http://www.w3.org/2000/svg"
   xmlns:svg="http://www.w3.org/2000/svg">
  <defs
     id="defs524" />
  <title
     id="title132">Beat Random Notes</title>
  <desc
     id="desc134">Generated by MuseScore 4.0.2</desc>
  <polyline
     class="Stem"
     fill="none"
     stroke="#000000"
     stroke-width="2.48"
     stroke-linejoin="bevel"
     points="608.556,1138.63 608.556,1068.2"
     id="polyline284"
     transform="translate(-577.56402,-1062)" />
  <polyline
     class="Stem"
     fill="none"
     stroke="#000000"
     stroke-width="2.48"
     stroke-linejoin="bevel"
     points="653.189,1138.63 653.189,1068.2"
     id="polyline286"
     transform="translate(-577.56402,-1062)" />
  <path
     class="Note"
     d="m 44.631984,84.769525 c 0,4.2625 3.069,9.021 11.11348,9.021 10.30757,0 21.12652,-8.432 21.12652,-17.1585 0,-5.859 -4.96,-9.1295 -11.11348,-9.1295 -9.62547,0 -21.12652,8.1375 -21.12652,17.267"
     id="path368"
     style="stroke-width:0.992" />
  <path
     class="Note"
     d="m -1.640646e-5,84.769525 c 0,4.2625 3.06900000646,9.021 11.11348040646,9.021 10.30757,0 21.12652,-8.432 21.12652,-17.1585 0,-5.859 -4.96,-9.1295 -11.11348,-9.1295 -9.62547,0 -21.12652040646,8.1375 -21.12652040646,17.267"
     id="path374"
     style="stroke-width:0.992" />
  <path
     class="Rest"
     d="m 115.75446,60.465525 c -0.093,0 -0.29443,-0.1085 -0.40296,-0.1085 -0.58904,0 -1.08504,0.31 -1.28652,0.806 -2.27852,4.557 -7.03695,10.7105 -12.4,11.7025 1.08505,-1.2865 1.78252,-2.883 1.78252,-4.7585 0,-3.875 -3.17747,-7.0525 -7.037016,-7.0525 -3.968,0 -7.1455,3.1775 -7.1455,7.0525 0,5.3475 5.2545,7.8275 9.92,7.8275 5.254516,0 8.726516,-2.48 12.105476,-6.1535 l -11.314956,35.324495 2.681476,0.7905 13.888,-43.740995 c 0.10852,-0.1085 0.10852,-0.31 0.10852,-0.496 0,-0.496 -0.31,-0.899 -0.89904,-1.1935"
     id="path456"
     style="stroke-width:0.992" />
  <path
     class="Beam"
     fill-rule="evenodd"
     d="m 29.751984,2.4643793e-5 h 47.113 V 12.400025 h -47.113 V 2.4643793e-5"
     id="path472" />
  <path
     class="Beam"
     fill-rule="evenodd"
     d="m 29.751984,18.600025 h 47.113 v 12.4 h -47.113 v -12.4"
     id="path474" />
</svg>
