<?xml version="1.0" encoding="UTF-8" standalone="no"?>
<svg
   width="136.59009"
   height="93.790527"
   viewBox="0 0 136.59009 93.79053"
   version="1.2"
   id="svg520"
   xmlns="http://www.w3.org/2000/svg"
   xmlns:svg="http://www.w3.org/2000/svg">
  <defs
     id="defs524" />
  <title
     id="title132">Beat Random Notes</title>
  <desc
     id="desc134">Generated by MuseScore 4.0.2</desc>
  <polyline
     class="Stem"
     fill="none"
     stroke="#000000"
     stroke-width="2.48"
     stroke-linejoin="bevel"
     points="1421.58,630.23 1421.58,559.798"
     id="polyline248"
     transform="translate(-1390.5799,-553.59801)" />
  <polyline
     class="Stem"
     fill="none"
     stroke="#000000"
     stroke-width="2.48"
     stroke-linejoin="bevel"
     points="1467.34,630.23 1467.34,559.798"
     id="polyline250"
     transform="translate(-1390.5799,-553.59801)" />
  <polyline
     class="Stem"
     fill="none"
     stroke="#000000"
     stroke-width="2.48"
     stroke-linejoin="bevel"
     points="1525.92,630.23 1525.92,559.798"
     id="polyline252"
     transform="translate(-1390.5799,-553.59801)" />
  <path
     class="Note"
     d="m 6.6751779e-5,84.76949 c 0,4.2625 3.069000048221,9.02102 11.113500248221,9.02102 10.3075,0 21.1265,-8.43202 21.1265,-17.15852 0,-5.859 -4.96,-9.12948 -11.1135,-9.12948 -9.6255,0 -21.126500248221,8.13748 -21.126500248221,17.26698"
     id="path352"
     style="stroke-width:0.992" />
  <path
     class="Note"
     d="m 45.770067,84.76949 c 0,4.2625 3.069,9.02102 11.1135,9.02102 10.3075,0 21.1265,-8.43202 21.1265,-17.15852 0,-5.859 -4.96,-9.12948 -11.1135,-9.12948 -9.6255,0 -21.1265,8.13748 -21.1265,17.26698"
     id="path354"
     style="stroke-width:0.992" />
  <path
     class="Note"
     d="m 104.35007,84.76949 c 0,4.2625 3.069,9.02102 11.1135,9.02102 10.3075,0 21.1265,-8.43202 21.1265,-17.15852 0,-5.859 -4.96,-9.12948 -11.1135,-9.12948 -9.6255,0 -21.1265,8.13748 -21.1265,17.26698"
     id="path356"
     style="stroke-width:0.992" />
  <path
     class="Beam"
     fill-rule="evenodd"
     d="M 29.760067,-9.6146523e-6 H 136.58007 V 12.39999 H 29.760067 V -9.6146523e-6"
     id="path484" />
  <path
     class="Beam"
     fill-rule="evenodd"
     d="m 29.760067,18.59999 h 48.24 v 12.4 h -48.24 v -12.4"
     id="path486" />
</svg>
