<?xml version="1.0" encoding="UTF-8" standalone="no"?>
<svg
   width="134.65399"
   height="97.959961"
   viewBox="0 0 134.65399 97.959963"
   version="1.2"
   id="svg520"
   xmlns="http://www.w3.org/2000/svg"
   xmlns:svg="http://www.w3.org/2000/svg">
  <defs
     id="defs524" />
  <title
     id="title132">Beat Random Notes</title>
  <desc
     id="desc134">Generated by MuseScore 4.0.2</desc>
  <polyline
     class="Stem"
     fill="none"
     stroke="#000000"
     stroke-width="2.48"
     stroke-linejoin="bevel"
     points="483.83,1138.63 483.83,1068.2"
     id="polyline280"
     transform="translate(-452.83799,-1061.9999)" />
  <polyline
     class="Stem"
     fill="none"
     stroke="#000000"
     stroke-width="2.48"
     stroke-linejoin="bevel"
     points="528.463,1138.63 528.463,1068.2"
     id="polyline282"
     transform="translate(-417.36899,-1061.9999)" />
  <path
     class="Note"
     d="m 80.101006,84.769542 c 0,4.2625 3.069,9.021 11.11348,9.021 10.307574,0 21.126524,-8.432 21.126524,-17.1585 0,-5.859 -4.96,-9.1295 -11.11348,-9.1295 -9.625474,0 -21.126524,8.1375 -21.126524,17.267"
     id="path382"
     style="stroke-width:0.992" />
  <path
     class="Note"
     d="m 5.8695434e-6,84.769542 c 0,4.2625 3.0690000304566,9.021 11.1134801304566,9.021 10.30757,0 21.12652,-8.432 21.12652,-17.1585 0,-5.859 -4.96,-9.1295 -11.11348,-9.1295 -9.62547,0 -21.1265201304566,8.1375 -21.1265201304566,17.267"
     id="path388"
     style="stroke-width:0.992" />
  <path
     class="Beam"
     fill-rule="evenodd"
     d="M 29.751996,4.2201218e-5 H 112.334 V 12.400042 H 29.751996 V 4.2201218e-5"
     id="path462"
     style="stroke-width:1" />
  <path
     class="Beam"
     fill-rule="evenodd"
     d="m 29.752006,18.600042 h 27.28 v 12.4 h -27.28 v -12.4"
     id="path464" />
  <path
     class="NoteDot"
     d="m 124.73401,93.000042 c 0,2.7745 2.1855,4.96 4.96,4.96 2.7745,0 4.96,-2.1855 4.96,-4.96 0,-2.7745 -2.1855,-4.96 -4.96,-4.96 -2.7745,0 -4.96,2.1855 -4.96,4.96"
     id="path518"
     style="stroke-width:0.992" />
</svg>
