<?xml version="1.0" encoding="UTF-8" standalone="no"?>
<svg
   width="162.45996"
   height="93.790527"
   viewBox="0 0 162.45996 93.79053"
   version="1.2"
   id="svg520"
   xmlns="http://www.w3.org/2000/svg"
   xmlns:svg="http://www.w3.org/2000/svg">
  <defs
     id="defs524" />
  <title
     id="title132">Beat Random Notes</title>
  <desc
     id="desc134">Generated by MuseScore 4.0.2</desc>
  <polyline
     class="Stem"
     fill="none"
     stroke="#000000"
     stroke-width="2.48"
     stroke-linejoin="bevel"
     points="1754.73,630.23 1754.73,559.798"
     id="polyline260"
     transform="translate(-1723.74,-553.59801)" />
  <polyline
     class="Stem"
     fill="none"
     stroke="#000000"
     stroke-width="2.48"
     stroke-linejoin="bevel"
     points="1816.31,630.23 1816.31,559.798"
     id="polyline262"
     transform="translate(-1723.74,-553.59801)" />
  <polyline
     class="Stem"
     fill="none"
     stroke="#000000"
     stroke-width="2.48"
     stroke-linejoin="bevel"
     points="1884.95,630.23 1884.95,559.798"
     id="polyline264"
     transform="translate(-1723.74,-553.59801)" />
  <path
     class="Note"
     d="m 3.8036145e-5,84.76949 c 0,4.2625 3.068999963855,9.02102 11.113499963855,9.02102 10.3075,0 21.1265,-8.43202 21.1265,-17.15852 0,-5.859 -4.96,-9.12948 -11.1135,-9.12948 -9.6255,0 -21.126499963855,8.13748 -21.126499963855,17.26698"
     id="path372"
     style="stroke-width:0.992" />
  <path
     class="Note"
     d="m 61.580038,84.76949 c 0,4.2625 3.069,9.02102 11.1135,9.02102 10.3075,0 21.1265,-8.43202 21.1265,-17.15852 0,-5.859 -4.96,-9.12948 -11.1135,-9.12948 -9.6255,0 -21.1265,8.13748 -21.1265,17.26698"
     id="path376"
     style="stroke-width:0.992" />
  <path
     class="Note"
     d="m 130.22004,84.76949 c 0,4.2625 3.069,9.02102 11.1135,9.02102 10.3075,0 21.1265,-8.43202 21.1265,-17.15852 0,-5.859 -4.96,-9.12948 -11.1135,-9.12948 -9.6255,0 -21.1265,8.13748 -21.1265,17.26698"
     id="path380"
     style="stroke-width:0.992" />
  <path
     class="Beam"
     fill-rule="evenodd"
     d="M 29.750038,-9.6146523e-6 H 162.45004 V 12.39999 H 29.750038 V -9.6146523e-6"
     id="path466" />
  <path
     class="Beam"
     fill-rule="evenodd"
     d="m 29.750038,18.59999 h 27.28 v 12.4 h -27.28 v -12.4"
     id="path468" />
  <path
     class="Beam"
     fill-rule="evenodd"
     d="m 162.45004,18.59999 h -27.28 v 12.4 h 27.28 v -12.4"
     id="path470" />
</svg>
