<?xml version="1.0" encoding="UTF-8" standalone="no"?>
<svg
   width="32.23999"
   height="75.190552"
   viewBox="0 0 32.239991 75.190554"
   version="1.2"
   id="svg520"
   xmlns="http://www.w3.org/2000/svg"
   xmlns:svg="http://www.w3.org/2000/svg">
  <defs
     id="defs524" />
  <title
     id="title132">Beat Random Notes</title>
  <desc
     id="desc134">Generated by MuseScore 4.0.2</desc>
  <polyline
     class="Stem"
     fill="none"
     stroke="#000000"
     stroke-width="2.48"
     stroke-linejoin="bevel"
     points="806.335,630.23 806.335,572.198"
     id="polyline228"
     transform="translate(-775.34197,-572.19798)" />
  <path
     class="Note"
     d="m 21.126553,48.902535 c -9.62547,0 -21.126520264328,8.04448 -21.126520264328,17.26698 0,4.2625 3.068999964328,9.02102 11.113480264328,9.02102 10.30757,0 21.12652,-8.43202 21.12652,-17.15852 0,-5.859 -4.96,-9.12948 -11.11348,-9.12948 M 7.4400327,70.525015 c -3.2705,0 -3.968,-2.666 -3.968,-3.565 0,-4.867 16.6625203,-13.392 21.3280003,-13.392 2.38705,0 3.968,1.395 3.968,3.565 0,4.96 -16.77095,13.392 -21.3280003,13.392"
     id="path312"
     style="stroke-width:0.992" />
</svg>
