<?xml version="1.0" encoding="UTF-8" standalone="no"?>
<svg
   width="54.550049"
   height="79.359985"
   viewBox="0 0 54.55005 79.359987"
   version="1.2"
   id="svg520"
   xmlns="http://www.w3.org/2000/svg"
   xmlns:svg="http://www.w3.org/2000/svg">
  <defs
     id="defs524" />
  <title
     id="title132">Beat Random Notes</title>
  <desc
     id="desc134">Generated by MuseScore 4.0.2</desc>
  <polyline
     class="Stem"
     fill="none"
     stroke="#000000"
     stroke-width="2.48"
     stroke-linejoin="bevel"
     points="2386.03,630.23 2386.03,572.198"
     id="polyline272"
     transform="translate(-2355.04,-572.19798)" />
  <path
     class="Note"
     d="m -4.3822592e-7,66.169515 c 0,4.2625 3.06900003822592,9.02102 11.11350043822592,9.02102 10.3075,0 21.1265,-8.43202 21.1265,-17.15852 0,-5.859 -4.96,-9.12948 -11.1135,-9.12948 -9.6255,0 -21.12650043822592,8.13748 -21.12650043822592,17.26698"
     id="path330"
     style="stroke-width:0.992" />
  <path
     class="NoteDot"
     d="m 44.63,74.400015 c 0,2.7745 2.1855,4.96 4.96,4.96 2.7745,0 4.96,-2.1855 4.96,-4.96 0,-2.7745 -2.1855,-4.96 -4.96,-4.96 -2.7745,0 -4.96,2.1855 -4.96,4.96"
     id="path512"
     style="stroke-width:0.992" />
</svg>
