<?xml version="1.0" encoding="UTF-8" standalone="no"?>
<svg
   width="23.312012"
   height="72.633057"
   viewBox="0 0 23.312012 72.633058"
   version="1.2"
   id="svg520"
   xmlns="http://www.w3.org/2000/svg"
   xmlns:svg="http://www.w3.org/2000/svg">
  <defs
     id="defs524" />
  <title
     id="title132">Beat Random Notes</title>
  <desc
     id="desc134">Generated by MuseScore 4.0.2</desc>
  <path
     class="Rest"
     d="m 22.816122,56.249579 c -0.093,-0.093 -0.2945,-0.29453 -0.589,-0.682 l -11.408,-14.08955 c -0.1085,-0.1085 -0.2015,-0.403 -0.2015,-0.6045 0,-0.2945 0.093,-0.682 0.2015,-0.8835 l 10.106,-15.28298 c 0.1085,-0.20157 0.2015,-0.496 0.2015,-0.69757 v -0.88347 c 0,-0.29453 -0.093,-0.60453 -0.2945,-0.79053 L 4.7586217,0.60452893 c 0,0 -0.3875,-0.6045199999628 -0.992,-0.6045199999628 -0.2945,0 -0.496,0 -0.7905,0.3099999999628 -0.403,0.29452 -0.496,0.682 -0.496,0.99199997 0,0.58904 0.2945,1.08504 0.2945,1.08504 L 10.323122,12.710009 c 0.186,0.29452 0.2945,0.682 0.2945,1.178 0,0.40304 -0.1085,0.89904 -0.2945,1.19347 L 0.2946217,30.364529 c -0.093,0.2015 -0.2015,0.589 -0.2015,0.7905 v 0.899 c 0,0.2945 0.1085,0.589 0.31,0.7905 l 11.0980003,13.795 c -0.3875,-0.1085 -1.2865,-0.31 -2.4800003,-0.31 -5.053,0 -9.02099999559,4.16952 -9.02099999559,9.23805 0,1.37947 0.29449999559,2.77443 1.08499999559,3.85947 2.0925,3.17748 9.5325003,12.60148 9.5325003,12.60148 0,0 0.496,0.60452 1.1935,0.60452 0.186,0 0.3875,0 0.589,-0.20147 0.496,-0.40305 0.6975,-0.79053 0.6975,-1.19357 0,-0.40296 -0.2015,-0.69748 -0.2945,-0.89896 -0.31,-0.496 -3.4720003,-6.24652 -3.4720003,-6.24652 0,0 -0.6975,-1.39495 -0.6975,-3.17748 0,-3.17747 2.3715003,-5.75052 5.5490003,-5.75052 1.2865,0 2.387,0.40305 3.1775,0.89905 l 3.875,2.48 c 0,0 0.3875,0.186 0.7905,0.186 0.3875,0 0.6975,-0.093 0.992,-0.496 0.2015,-0.29453 0.2945,-0.58905 0.2945,-0.88357 0,-0.29443 -0.093,-0.496 -0.2945,-0.79043 l -0.2015,-0.31"
     id="path420"
     style="stroke-width:0.992" />
</svg>
