<?xml version="1.0" encoding="UTF-8" standalone="no"?>
<svg
   width="140.53992"
   height="128.56152"
   viewBox="0 0 140.53992 128.56153"
   version="1.2"
   id="svg520"
   xmlns="http://www.w3.org/2000/svg"
   xmlns:svg="http://www.w3.org/2000/svg">
  <defs
     id="defs524" />
  <title
     id="title132">Beat Random Notes</title>
  <desc
     id="desc134">Generated by MuseScore 4.0.2</desc>
  <polyline
     class="Stem"
     fill="none"
     stroke="#000000"
     stroke-width="2.48"
     stroke-linejoin="bevel"
     points="1991.09,630.23 1991.09,572.198"
     id="polyline244"
     transform="translate(-1960.0999,-518.82701)" />
  <polyline
     class="Stem"
     fill="none"
     stroke="#000000"
     stroke-width="2.48"
     stroke-linejoin="bevel"
     points="2045.24,630.23 2045.24,572.198"
     id="polyline266"
     transform="translate(-1960.0999,-518.82701)" />
  <polyline
     class="Stem"
     fill="none"
     stroke="#000000"
     stroke-width="2.48"
     stroke-linejoin="bevel"
     points="2099.39,630.23 2099.39,572.198"
     id="polyline268"
     transform="translate(-1960.0999,-518.82701)" />
  <path
     class="Note"
     d="m 54.150057,119.54049 c 0,4.2625 3.069,9.02102 11.1135,9.02102 10.3075,0 21.1265,-8.43202 21.1265,-17.15852 0,-5.859 -4.96,-9.12948 -11.1135,-9.12948 -9.6255,0 -21.1265,8.13748 -21.1265,17.26698"
     id="path308"
     style="stroke-width:0.992" />
  <path
     class="Note"
     d="m 108.30006,119.54049 c 0,4.2625 3.069,9.02102 11.1135,9.02102 10.3075,0 21.1265,-8.43202 21.1265,-17.15852 0,-5.859 -4.96,-9.12948 -11.1135,-9.12948 -9.6255,0 -21.1265,8.13748 -21.1265,17.26698"
     id="path324"
     style="stroke-width:0.992" />
  <path
     class="Note"
     d="m 5.6561048e-5,119.54049 c 0,4.2625 3.069000038952,9.02102 11.113500438952,9.02102 10.3075,0 21.1265,-8.43202 21.1265,-17.15852 0,-5.859 -4.96,-9.12948 -11.1135,-9.12948 -9.6255,0 -21.126500438952,8.13748 -21.126500438952,17.26698"
     id="path386"
     style="stroke-width:0.992" />
  <path
     class="Beam"
     fill-rule="evenodd"
     d="M 29.750057,47.170986 H 140.53006 v 12.4 H 29.750057 v -12.4"
     id="path460" />
  <path
     class="Tuplet"
     d="m 88.190057,15.295986 c 2.13,-0.671 2.97,-1.046 4.05,-1.765 2.13,-1.391 3.42,-3.8600003 3.42,-6.3910003 0,-4.265 -3.42,-7.140000027766 -8.45,-7.140000027766 -4.91,0 -9.05,3.046000027766 -9.05,6.750000027766 0,1.843 1.13,3.093 2.83,3.093 1.49,0 2.58,-1.078 2.58,-2.562 0,-0.766 -0.23,-1.297 -0.95,-2.016 -0.46,-0.406 -0.63,-0.734 -0.63,-1.047 0,-1.078 2.25,-2.203 4.36,-2.203 3.02,0 4.81,1.672 4.81,4.453 0,4.0160003 -2.82,7.7820003 -5.84,7.7820003 -0.14,0 -0.55,-0.032 -1.03,-0.079 -1.31,-0.093 -1.31,-0.093 -1.58,-0.093 -1,0 -1.53,0.453 -1.53,1.265 0,0.719 0.5,1.157 1.3,1.157 0.23,0 0.54,-0.032 0.9,-0.079 0.63,-0.14 1.31,-0.187 1.71,-0.187 2.12,0 3.56,1.891 3.56,4.687 0,4.86 -2.39,9.532 -7.83,9.532 -2.52,0 -4.69,-1.25 -4.69,-2.703 0,-0.485 0.19,-0.672 0.91,-0.985 1.3,-0.578 1.84,-1.39 1.84,-2.609 0,-1.578 -1.26,-2.781 -2.87,-2.781 -1.94,0 -3.21,1.515 -3.21,3.859 0,4.375 3.33,7.109 8.74,7.109 6.8,0 11.97,-4.547 11.97,-10.578 0,-3.5 -2.16,-5.484 -5.32,-6.469"
     id="path510" />
</svg>
