<?xml version="1.0" encoding="UTF-8" standalone="no"?>
<svg
   width="58.427063"
   height="94.984009"
   viewBox="0 0 58.427064 94.984011"
   version="1.2"
   id="svg520"
   xmlns="http://www.w3.org/2000/svg"
   xmlns:svg="http://www.w3.org/2000/svg">
  <defs
     id="defs524" />
  <title
     id="title132">Beat Random Notes</title>
  <desc
     id="desc134">Generated by MuseScore 4.0.2</desc>
  <polyline
     class="Stem"
     fill="none"
     stroke="#000000"
     stroke-width="2.48"
     stroke-linejoin="bevel"
     points="974.953,1138.63 974.953,1062.2"
     id="polyline292"
     transform="translate(-943.96098,-1060.8065)" />
  <path
     class="Note"
     d="m 1.6946452e-5,85.963006 c 0,4.2625 3.068999953548,9.021 11.113480053548,9.021 10.30757,0 21.12652,-8.432 21.12652,-17.1585 0,-5.859 -4.96,-9.1295 -11.11348,-9.1295 -9.62547,0 -21.126520053548,8.1375 -21.126520053548,17.267"
     id="path338"
     style="stroke-width:0.992" />
  <path
     class="Hook"
     d="m 29.752017,23.715006 c 0,0.2945 0.093,0.8835 0.7905,1.085 4.2625,1.395 12.80298,6.758 19.25098,17.763 1.78252,3.069 4.66557,7.347 4.66557,15.5775 0,7.1455 -1.798,14.477 -4.464,21.6225 -0.20157,0.6045 -0.31,1.1005 -0.31,1.488 0,0.6975 0.40295,0.992 1.10043,0.992 0.58904,0 1.08504,-0.3875 1.488,-1.085 4.46402,-7.936 6.15352,-17.174 6.15352,-26.195 -0.496,-12.803 -7.843,-22.227 -7.843,-22.227 0.29452,0 -9.12948,-12.1985 -11.811,-16.368 -3.658,-5.6575 -5.3475,-11.2994999 -5.549,-11.7024999 -0.093,-0.2945 -0.992,-3.87500004 -0.992,-3.87500004 -0.093,-0.3875 -0.589,-0.7904999985898 -1.1935,-0.7904999985898 -0.6975,0 -1.2865,0.6044999985898 -1.2865,1.2865000385898 V 23.715006"
     id="path504"
     style="stroke-width:0.992" />
</svg>
