<?xml version="1.0" encoding="UTF-8" standalone="no"?>
<svg
   width="146.65002"
   height="93.790527"
   viewBox="0 0 146.65003 93.79053"
   version="1.2"
   id="svg520"
   xmlns="http://www.w3.org/2000/svg"
   xmlns:svg="http://www.w3.org/2000/svg">
  <defs
     id="defs524" />
  <title
     id="title132">Beat Random Notes</title>
  <desc
     id="desc134">Generated by MuseScore 4.0.2</desc>
  <polyline
     class="Stem"
     fill="none"
     stroke="#000000"
     stroke-width="2.48"
     stroke-linejoin="bevel"
     points="1594.56,630.23 1594.56,559.798"
     id="polyline254"
     transform="translate(-1563.5699,-553.59801)" />
  <polyline
     class="Stem"
     fill="none"
     stroke="#000000"
     stroke-width="2.48"
     stroke-linejoin="bevel"
     points="1663.21,630.23 1663.21,559.798"
     id="polyline256"
     transform="translate(-1563.5699,-553.59801)" />
  <polyline
     class="Stem"
     fill="none"
     stroke="#000000"
     stroke-width="2.48"
     stroke-linejoin="bevel"
     points="1708.97,630.23 1708.97,559.798"
     id="polyline258"
     transform="translate(-1563.5699,-553.59801)" />
  <path
     class="Note"
     d="m 7.9354558e-5,84.76949 c 0,4.2625 3.069000045442,9.02102 11.113499645442,9.02102 10.3075,0 21.1265,-8.43202 21.1265,-17.15852 0,-5.859 -4.96,-9.12948 -11.1135,-9.12948 -9.6255,0 -21.126499645442,8.13748 -21.126499645442,17.26698"
     id="path362"
     style="stroke-width:0.992" />
  <path
     class="Note"
     d="m 68.640079,84.76949 c 0,4.2625 3.069,9.02102 11.1135,9.02102 10.3075,0 21.126501,-8.43202 21.126501,-17.15852 0,-5.859 -4.960001,-9.12948 -11.113501,-9.12948 -9.6255,0 -21.1265,8.13748 -21.1265,17.26698"
     id="path364"
     style="stroke-width:0.992" />
  <path
     class="Note"
     d="m 114.41008,84.76949 c 0,4.2625 3.069,9.02102 11.1135,9.02102 10.3075,0 21.1265,-8.43202 21.1265,-17.15852 0,-5.859 -4.96,-9.12948 -11.1135,-9.12948 -9.6255,0 -21.1265,8.13748 -21.1265,17.26698"
     id="path370"
     style="stroke-width:0.992" />
  <path
     class="Beam"
     fill-rule="evenodd"
     d="M 29.750079,-9.6146523e-6 H 146.64008 V 12.39999 H 29.750079 V -9.6146523e-6"
     id="path476" />
  <path
     class="Beam"
     fill-rule="evenodd"
     d="m 98.400079,18.59999 h 48.240001 v 12.4 H 98.400079 v -12.4"
     id="path478" />
</svg>
