<?xml version="1.0" encoding="UTF-8" standalone="no"?>
<svg
   width="100.88"
   height="81.390564"
   viewBox="0 0 100.88001 81.390566"
   version="1.2"
   id="svg520"
   xmlns="http://www.w3.org/2000/svg"
   xmlns:svg="http://www.w3.org/2000/svg">
  <defs
     id="defs524" />
  <title
     id="title132">Beat Random Notes</title>
  <desc
     id="desc134">Generated by MuseScore 4.0.2</desc>
  <polyline
     class="Stem"
     fill="none"
     stroke="#000000"
     stroke-width="2.48"
     stroke-linejoin="bevel"
     points="1063.75,630.23 1063.75,572.198"
     id="polyline234"
     transform="translate(-1032.76,-565.99797)" />
  <polyline
     class="Stem"
     fill="none"
     stroke="#000000"
     stroke-width="2.48"
     stroke-linejoin="bevel"
     points="1132.39,630.23 1132.39,572.198"
     id="polyline236"
     transform="translate(-1032.76,-565.99797)" />
  <path
     class="Note"
     d="m 7.1723484e-6,72.369527 c 0,4.2625 3.0690000276516,9.02102 11.1134998276516,9.02102 10.3075,0 21.1265,-8.43202 21.1265,-17.15852 0,-5.859 -4.96,-9.12948 -11.1135,-9.12948 -9.6255,0 -21.1264998276516,8.13748 -21.1264998276516,17.26698"
     id="path336"
     style="stroke-width:0.992" />
  <path
     class="Note"
     d="m 68.640007,72.369527 c 0,4.2625 3.069,9.02102 11.1135,9.02102 10.3075,0 21.126503,-8.43202 21.126503,-17.15852 0,-5.859 -4.960003,-9.12948 -11.113503,-9.12948 -9.6255,0 -21.1265,8.13748 -21.1265,17.26698"
     id="path342"
     style="stroke-width:0.992" />
  <path
     class="Beam"
     fill-rule="evenodd"
     d="M 29.750007,2.7294184e-5 H 100.87001 V 12.400027 H 29.750007 V 2.7294184e-5"
     id="path492" />
</svg>
