<?xml version="1.0" encoding="UTF-8" standalone="no"?>
<svg
   width="112.33401"
   height="97.959961"
   viewBox="0 0 112.33402 97.959963"
   version="1.2"
   id="svg520"
   xmlns="http://www.w3.org/2000/svg"
   xmlns:svg="http://www.w3.org/2000/svg">
  <defs
     id="defs524" />
  <title
     id="title132">Beat Random Notes</title>
  <desc
     id="desc134">Generated by MuseScore 4.0.2</desc>
  <polyline
     class="Stem"
     fill="none"
     stroke="#000000"
     stroke-width="2.48"
     stroke-linejoin="bevel"
     points="359.104,1138.63 359.104,1068.2"
     id="polyline274"
     transform="translate(-328.11199,-1062)" />
  <polyline
     class="Stem"
     fill="none"
     stroke="#000000"
     stroke-width="2.48"
     stroke-linejoin="bevel"
     points="439.198,1138.63 439.198,1068.2"
     id="polyline278"
     transform="translate(-328.11199,-1062)" />
  <path
     class="Note"
     d="m 80.094006,84.769525 c 0,4.2625 3.069,9.021 11.11348,9.021 10.307574,0 21.126524,-8.432 21.126524,-17.1585 0,-5.859 -4.96,-9.1295 -11.11348,-9.1295 -9.625474,0 -21.126524,8.1375 -21.126524,17.267"
     id="path306"
     style="stroke-width:0.992" />
  <path
     class="Note"
     d="m 5.8695434e-6,84.769525 c 0,4.2625 3.0690000304566,9.021 11.1134801304566,9.021 10.30757,0 21.12652,-8.432 21.12652,-17.1585 0,-5.859 -4.96,-9.1295 -11.11348,-9.1295 -9.62547,0 -21.1265201304566,8.1375 -21.1265201304566,17.267"
     id="path326"
     style="stroke-width:0.992" />
  <path
     class="Beam"
     fill-rule="evenodd"
     d="M 29.752006,2.4643793e-5 H 112.32601 V 12.400025 H 29.752006 V 2.4643793e-5"
     id="path488" />
  <path
     class="Beam"
     fill-rule="evenodd"
     d="M 112.32601,18.600025 H 85.046006 v 12.4 h 27.280004 v -12.4"
     id="path490" />
  <path
     class="NoteDot"
     d="m 44.632006,93.000025 c 0,2.7745 2.1855,4.96 4.96,4.96 2.7745,0 4.96,-2.1855 4.96,-4.96 0,-2.7745 -2.1855,-4.96 -4.96,-4.96 -2.7745,0 -4.96,2.1855 -4.96,4.96"
     id="path516"
     style="stroke-width:0.992" />
</svg>
