<?xml version="1.0" encoding="UTF-8" standalone="no"?>
<svg
   width="27.388428"
   height="45.539062"
   viewBox="0 0 27.388428 45.539064"
   version="1.2"
   id="svg520"
   xmlns="http://www.w3.org/2000/svg"
   xmlns:svg="http://www.w3.org/2000/svg">
  <defs
     id="defs524" />
  <title
     id="title132">Beat Random Notes</title>
  <desc
     id="desc134">Generated by MuseScore 4.0.2</desc>
  <path
     class="Rest"
     d="m 26.489482,0.10853819 c -0.093,0 -0.2945,-0.1085299978149 -0.403,-0.1085299978149 -0.589,0 -1.085,0.3099999978149 -1.2865,0.8059999978149 -2.2785,4.55705001 -7.037,10.71054981 -12.4,11.70254981 1.085,-1.2865 1.7825,-2.8829798 1.7825,-4.7585498 0,-3.87495 -3.1775,-7.05243001 -7.0369998,-7.05243001 -3.968,0 -7.145500028858,3.17748001 -7.145500028858,7.05243001 0,5.3475498 5.254500028858,7.8275498 9.920000028858,7.8275498 5.2544998,0 8.7264998,-2.48 12.1054998,-6.1535498 l -11.315,35.3245298 2.6815,0.79052 13.888,-43.7410498 c 0.1085,-0.10843 0.1085,-0.31 0.1085,-0.496 0,-0.49600001 -0.31,-0.89895001 -0.899,-1.19347001"
     id="path408"
     style="stroke-width:0.992" />
</svg>
