<?xml version="1.0" encoding="UTF-8" standalone="no"?>
<svg
   width="116.66052"
   height="105.896"
   viewBox="0 0 116.66052 105.896"
   version="1.2"
   id="svg520"
   xmlns="http://www.w3.org/2000/svg"
   xmlns:svg="http://www.w3.org/2000/svg">
  <defs
     id="defs524" />
  <title
     id="title132">Beat Random Notes</title>
  <desc
     id="desc134">Generated by MuseScore 4.0.2</desc>
  <polyline
     class="Stem"
     fill="none"
     stroke="#000000"
     stroke-width="2.48"
     stroke-linejoin="bevel"
     points="824.184,1138.63 824.184,1068.2"
     id="polyline288"
     transform="translate(-753.4035,-1062)" />
  <polyline
     class="Stem"
     fill="none"
     stroke="#000000"
     stroke-width="2.48"
     stroke-linejoin="bevel"
     points="868.817,1138.63 868.817,1068.2"
     id="polyline290"
     transform="translate(-753.4035,-1062)" />
  <path
     class="Note"
     d="m 84.420504,84.769475 c 0,4.2625 3.069,9.021 11.11347,9.021 10.307576,0 21.126526,-8.432 21.126526,-17.1585 0,-5.859 -4.96,-9.1295 -11.11348,-9.1295 -9.625466,0 -21.126516,8.1375 -21.126516,17.267"
     id="path332"
     style="stroke-width:0.992" />
  <path
     class="Note"
     d="m 39.788504,84.769475 c 0,4.2625 3.069,9.021 11.11347,9.021 10.30758,0 21.12653,-8.432 21.12653,-17.1585 0,-5.859 -4.96,-9.1295 -11.11348,-9.1295 -9.62547,0 -21.12652,8.1375 -21.12652,17.267"
     id="path360"
     style="stroke-width:0.992" />
  <path
     class="Rest"
     d="m 26.489454,60.465475 c -0.0929,0 -0.29442,-0.1085 -0.40295,-0.1085 -0.58905,0 -1.08505,0.31 -1.28652,0.806 -2.27853,4.557 -7.03695,10.7105 -12.4,11.7025 1.08505,-1.2865 1.78252,-2.883 1.78252,-4.7585 0,-3.875 -3.17747,-7.0525 -7.0370204,-7.0525 -3.968,0 -7.14550000646,3.1775 -7.14550000646,7.0525 0,5.3475 5.25450000646,7.8275 9.92000000646,7.8275 5.2545204,0 8.7265204,-2.48 12.1054704,-6.1535 l -11.31495,35.324505 2.68148,0.7905 13.888,-43.741005 c 0.10852,-0.1085 0.10852,-0.31 0.10852,-0.496 0,-0.496 -0.31,-0.899 -0.89905,-1.1935"
     id="path416"
     style="stroke-width:0.992" />
  <path
     class="Beam"
     fill-rule="evenodd"
     d="M 69.540504,-2.4896641e-5 H 116.6535 V 12.399975 H 69.540504 V -2.4896641e-5"
     id="path494" />
  <path
     class="Beam"
     fill-rule="evenodd"
     d="M 69.540504,18.599975 H 116.6535 v 12.4 H 69.540504 v -12.4"
     id="path496" />
</svg>
