<?xml version="1.0" encoding="UTF-8" standalone="no"?>
<svg
   width="2977.2px"
   height="4208.4px"
   viewBox="0 0 2977.2 4208.4"
   version="1.2"
   id="svg520"
   sodipodi:docname="notes.svg"
   inkscape:version="1.2.2 (732a01da63, 2022-12-09)"
   xmlns:inkscape="http://www.inkscape.org/namespaces/inkscape"
   xmlns:sodipodi="http://sodipodi.sourceforge.net/DTD/sodipodi-0.dtd"
   xmlns="http://www.w3.org/2000/svg"
   xmlns:svg="http://www.w3.org/2000/svg"
   xmlns:rdf="http://www.w3.org/1999/02/22-rdf-syntax-ns#"
   xmlns:cc="http://creativecommons.org/ns#"
   xmlns:dc="http://purl.org/dc/elements/1.1/">
  <defs
     id="defs524" />
  <sodipodi:namedview
     id="namedview522"
     pagecolor="#ffffff"
     bordercolor="#000000"
     borderopacity="0.25"
     inkscape:showpageshadow="2"
     inkscape:pageopacity="0.0"
     inkscape:pagecheckerboard="0"
     inkscape:deskcolor="#d1d1d1"
     showgrid="false"
     inkscape:zoom="0.55313078"
     inkscape:cx="1105.5252"
     inkscape:cy="841.57313"
     inkscape:window-width="1920"
     inkscape:window-height="1026"
     inkscape:window-x="-8"
     inkscape:window-y="-8"
     inkscape:window-maximized="1"
     inkscape:current-layer="svg520" />
  <title
     id="title132">Beat Random Notes</title>
  <desc
     id="desc134">Generated by MuseScore 4.0.2</desc>
  <path
     class=""
     fill="#ffffff"
     fill-rule="evenodd"
     d="M -158.64241,0 H 2818.5576 V 4208.4 H -158.64241 V 0"
     id="path136" />
  <polyline
     class="StaffLines"
     fill="none"
     stroke="#000000"
     stroke-width="2.73"
     stroke-linejoin="bevel"
     points="336.598,634.198 2764.6,634.198"
     id="polyline138" />
  <polyline
     class="StaffLines"
     fill="none"
     stroke="#000000"
     stroke-width="2.73"
     stroke-linejoin="bevel"
     points="212.598,1142.6 2764.6,1142.6"
     id="polyline140" />
  <polyline
     class="StaffLines"
     fill="none"
     stroke="#000000"
     stroke-width="2.73"
     stroke-linejoin="bevel"
     points="212.598,1651 2764.6,1651"
     id="polyline142" />
  <polyline
     class="StaffLines"
     fill="none"
     stroke="#000000"
     stroke-width="2.73"
     stroke-linejoin="bevel"
     points="212.598,2159.4 2764.6,2159.4"
     id="polyline144" />
  <path
     class="Text"
     d="M983.895,215.177 L983.895,220.348 L985.88,220.348 C992.145,220.458 994.239,220.786 995.114,221.895 C995.786,222.88 995.786,223.098 995.786,228.708 L995.786,281.067 C995.786,286.677 995.786,286.895 995.114,287.895 C994.239,288.989 992.145,289.427 985.88,289.427 L983.895,289.427 L983.895,294.598 L1023.83,294.598 C1042.86,294.598 1054.3,286.567 1054.3,273.036 C1054.3,262.036 1047.36,255.77 1032.3,253.13 C1037.58,252.036 1040,251.036 1042.86,248.942 C1047.36,245.536 1050.11,240.145 1050.11,234.645 C1050.11,227.505 1045.72,220.567 1039.33,217.817 C1035.38,216.052 1029.88,215.177 1023.4,215.177 L983.895,215.177 M1008.1,250.927 L1008.1,225.848 C1008.1,221.552 1009.54,220.458 1015.36,220.348 L1019.75,220.348 C1030.54,220.348 1037.36,223.864 1037.36,235.864 C1037.36,246.755 1032.08,250.927 1017.9,250.927 L1008.1,250.927 M1008.1,256.098 L1017.79,256.098 C1034.61,256.098 1040.77,260.614 1040.77,272.708 C1040.77,287.442 1031.54,289.427 1019.1,289.427 L1014.47,289.427 C1008.97,289.427 1007.88,288.333 1008.1,282.505 L1008.1,256.098 M1110.75,269.848 C1110.86,253.348 1101.5,241.692 1088.08,241.692 C1074,241.692 1063.44,253.895 1063.44,270.395 C1063.44,285.911 1073.46,296.255 1088.3,296.255 C1098.86,296.255 1106.24,291.083 1110.75,280.63 L1106.9,278.536 C1102.4,287.005 1097.77,290.302 1090.4,290.302 C1084.79,290.302 1080.72,288.005 1077.86,283.052 C1075.88,279.755 1075,275.895 1075.11,269.848 L1110.75,269.848 M1075.22,265.114 C1075.22,257.411 1078.74,246.411 1087.97,246.411 C1094.58,246.411 1098.97,252.255 1098.97,261.161 C1098.97,264.239 1097.99,265.114 1094.47,265.114 L1075.22,265.114 M1163.32,259.177 C1163.32,252.255 1162.11,248.723 1158.91,246.083 C1155.29,243.114 1149.9,241.692 1142.86,241.692 C1130.43,241.692 1121.41,247.52 1121.41,255.552 C1121.41,259.614 1123.94,262.255 1127.79,262.255 C1131.3,262.255 1133.72,259.942 1133.72,256.645 C1133.72,255.223 1133.18,253.677 1132.08,252.145 C1131.41,251.364 1131.3,251.145 1131.3,250.598 C1131.3,248.395 1135.71,246.411 1140.99,246.411 C1144.5,246.411 1148.36,247.52 1150.11,249.161 C1152.21,250.927 1152.97,253.567 1152.97,258.52 L1152.97,262.802 C1141.54,264.786 1137.91,265.661 1132.52,267.755 C1122.94,271.286 1118.44,276.333 1118.44,283.38 C1118.44,291.302 1124.6,296.255 1134.4,296.255 C1141.97,296.255 1148.8,293.161 1153.54,287.552 C1155.29,293.161 1158.04,295.364 1163.21,295.364 C1168.16,295.364 1173.33,292.177 1173.33,288.989 C1173.33,288.223 1172.9,287.661 1172.22,287.661 C1171.79,287.661 1171.35,287.786 1170.58,288.114 C1169.04,288.77 1168.38,288.88 1167.5,288.88 C1164.41,288.88 1163.32,286.895 1163.32,281.286 L1163.32,259.177 M1152.97,272.598 C1152.97,279.192 1152.65,280.739 1150.79,283.598 C1148.04,287.661 1143.08,290.411 1138.24,290.411 C1133.18,290.411 1129.55,286.786 1129.55,281.833 C1129.55,277.223 1131.86,273.911 1136.69,271.614 C1140.11,270.067 1144.4,268.973 1152.97,267.536 L1152.97,272.598 M1192.94,243.333 L1192.94,221.552 L1188.43,221.552 C1187.33,235.864 1182.49,243.114 1173.58,243.786 L1173.58,248.067 L1182.6,248.067 L1182.6,276.114 C1182.6,283.817 1182.82,286.567 1183.91,289.098 C1185.68,293.723 1190.08,296.255 1196.46,296.255 C1206.36,296.255 1212.74,288.77 1212.74,277.114 C1212.74,276.442 1212.74,275.677 1212.63,274.583 L1208,274.583 C1207.68,284.473 1204.82,289.536 1199.43,289.536 C1196.9,289.536 1194.69,288.223 1193.93,286.348 C1193.27,284.802 1192.94,282.052 1192.94,278.098 L1192.94,248.067 L1209.11,248.067 L1209.11,243.333 L1192.94,243.333 M1272.66,256.098 L1279.04,256.098 C1290.15,256.536 1294.55,261.052 1295.75,273.145 L1296.3,278.755 C1297.63,291.192 1301.69,296.255 1310.4,296.255 C1319.41,296.255 1323.69,290.192 1324.04,277.005 L1319.41,277.005 C1318.97,284.583 1317.65,287.895 1314.68,287.895 C1312.15,287.895 1311.05,286.02 1309.18,278.427 L1307.43,271.505 C1305,261.38 1300.71,256.755 1292.13,254.552 C1307.97,252.364 1315.55,245.973 1315.55,234.864 C1315.55,222.333 1305,215.177 1286.52,215.177 L1248.46,215.177 L1248.46,220.348 L1250.44,220.348 C1256.71,220.458 1258.8,220.786 1259.68,221.895 C1260.33,222.88 1260.33,223.098 1260.33,228.708 L1260.33,281.177 C1260.33,286.677 1260.33,286.895 1259.68,288.005 C1258.8,289.098 1256.71,289.427 1250.44,289.427 L1248.46,289.427 L1248.46,294.598 L1284.54,294.598 L1284.54,289.427 L1282.55,289.427 C1276.29,289.427 1274.19,289.098 1273.32,288.005 C1272.66,286.895 1272.66,286.677 1272.66,281.177 L1272.66,256.098 M1272.66,250.927 L1272.66,226.723 C1272.44,220.677 1272.99,220.239 1280.25,220.348 L1286.19,220.348 C1297.08,220.348 1302.04,224.973 1302.04,234.973 C1302.04,246.536 1295.86,250.927 1284.75,250.927 L1272.66,250.927 M1375.32,259.177 C1375.32,252.255 1374.11,248.723 1370.91,246.083 C1367.29,243.114 1361.9,241.692 1354.86,241.692 C1342.43,241.692 1333.41,247.52 1333.41,255.552 C1333.41,259.614 1335.94,262.255 1339.79,262.255 C1343.3,262.255 1345.72,259.942 1345.72,256.645 C1345.72,255.223 1345.18,253.677 1344.08,252.145 C1343.41,251.364 1343.3,251.145 1343.3,250.598 C1343.3,248.395 1347.71,246.411 1352.99,246.411 C1356.5,246.411 1360.36,247.52 1362.11,249.161 C1364.21,250.927 1364.97,253.567 1364.97,258.52 L1364.97,262.802 C1353.54,264.786 1349.91,265.661 1344.52,267.755 C1334.94,271.286 1330.44,276.333 1330.44,283.38 C1330.44,291.302 1336.6,296.255 1346.4,296.255 C1353.97,296.255 1360.8,293.161 1365.54,287.552 C1367.29,293.161 1370.04,295.364 1375.21,295.364 C1380.16,295.364 1385.33,292.177 1385.33,288.989 C1385.33,288.223 1384.9,287.661 1384.22,287.661 C1383.79,287.661 1383.35,287.786 1382.58,288.114 C1381.04,288.77 1380.38,288.88 1379.5,288.88 C1376.41,288.88 1375.32,286.895 1375.32,281.286 L1375.32,259.177 M1364.97,272.598 C1364.97,279.192 1364.65,280.739 1362.79,283.598 C1360.04,287.661 1355.08,290.411 1350.24,290.411 C1345.18,290.411 1341.55,286.786 1341.55,281.833 C1341.55,277.223 1343.86,273.911 1348.69,271.614 C1352.11,270.067 1356.4,268.973 1364.97,267.536 L1364.97,272.598 M1408.6,243.333 L1389.57,244.552 L1389.57,249.286 L1393.54,249.286 C1397.71,249.395 1398.25,250.052 1398.25,254.786 L1398.25,286.239 C1398.15,287.895 1398.04,288.552 1397.6,289.098 C1396.83,290.083 1394.74,290.536 1390,290.645 L1389.57,290.645 L1389.57,294.598 L1417.4,294.598 L1417.4,290.645 L1416.96,290.645 C1409.58,290.411 1408.6,289.864 1408.6,285.911 L1408.6,269.63 C1408.6,264.239 1409.36,259.286 1410.58,256.755 C1412.9,251.802 1417.83,248.395 1422.57,248.395 C1425.43,248.395 1428.72,249.942 1430.38,252.255 C1432.04,254.661 1432.8,257.973 1432.8,263.255 L1432.8,286.239 C1432.69,287.895 1432.58,288.552 1432.15,289.098 C1431.36,290.083 1429.16,290.536 1424.44,290.645 L1424,290.645 L1424,294.598 L1451.83,294.598 L1451.83,290.645 L1451.4,290.645 C1444.13,290.411 1443.15,289.864 1443.15,285.911 L1443.15,263.802 C1443.15,255.88 1442.8,253.895 1440.83,250.161 C1438.08,244.88 1432.58,241.692 1425.97,241.692 C1418.83,241.692 1413.44,244.989 1408.6,252.255 L1408.6,243.333 M1495.4,295.364 L1514.54,294.598 L1514.54,289.864 L1512.55,289.864 C1506.29,289.536 1505.74,288.88 1505.74,281.833 L1505.74,213.52 L1484.18,214.739 L1484.18,219.473 L1490.66,219.473 C1494.85,219.583 1495.4,220.239 1495.4,224.973 L1495.4,249.833 C1491.33,244.223 1486.6,241.692 1480.22,241.692 C1467.79,241.692 1458.33,253.677 1458.33,269.52 C1458.33,285.145 1467.46,296.255 1480.22,296.255 C1487.15,296.255 1491.88,293.286 1495.4,286.677 L1495.4,295.364 M1482.41,247.63 C1486.93,247.63 1491.22,250.927 1493.19,255.989 C1494.63,259.286 1495.29,263.802 1495.29,269.192 C1495.29,282.052 1490.22,290.302 1482.3,290.302 C1474.5,290.302 1469.88,283.052 1469.88,270.833 C1469.88,264.239 1470.54,259.286 1471.97,255.661 C1473.83,250.708 1477.91,247.63 1482.41,247.63 M1544.32,241.692 C1530.79,241.692 1520.33,253.677 1520.33,269.083 C1520.33,284.145 1530.9,296.255 1544.1,296.255 C1557.3,296.255 1567.86,284.145 1567.86,268.973 C1567.86,253.895 1557.3,241.692 1544.32,241.692 M1544.32,246.411 C1552.02,246.411 1556.3,254.442 1556.3,268.973 C1556.3,283.598 1552.02,291.52 1544.1,291.52 C1536.18,291.52 1531.9,283.598 1531.9,269.083 C1531.9,254.114 1536.07,246.411 1544.32,246.411 M1593.71,243.333 L1574.13,244.552 L1574.13,249.286 L1578.65,249.286 C1582.82,249.395 1583.36,250.052 1583.36,254.786 L1583.36,286.239 C1583.25,287.895 1583.15,288.552 1582.71,289.098 C1581.94,290.083 1579.85,290.536 1575.11,290.645 L1574.68,290.645 L1574.68,294.598 L1602.4,294.598 L1602.4,290.645 L1601.96,290.645 C1594.69,290.411 1593.71,289.864 1593.71,285.802 L1593.71,265.442 C1593.71,255.661 1599.1,248.395 1606.25,248.395 C1612.52,248.395 1615.71,252.911 1615.71,261.817 L1615.71,286.348 C1615.6,287.786 1615.49,288.552 1614.94,289.098 C1614.29,290.083 1612.08,290.536 1607.35,290.645 L1606.91,290.645 L1606.91,294.598 L1634.74,294.598 L1634.74,290.645 L1634.3,290.645 C1627.04,290.411 1626.05,289.864 1626.05,285.911 L1626.05,266.442 C1626.05,255.442 1631,248.395 1638.69,248.395 C1644.97,248.395 1648.05,253.13 1648.05,263.036 L1648.05,286.239 C1647.94,287.786 1647.83,288.552 1647.29,289.098 C1646.61,290.083 1644.43,290.536 1639.69,290.645 L1639.25,290.645 L1639.25,294.598 L1667.08,294.598 L1667.08,290.645 L1666.65,290.645 C1659.38,290.411 1658.4,289.864 1658.4,285.802 L1658.4,260.833 C1658.4,254.005 1657.72,251.692 1654.86,247.958 C1651.68,243.895 1647.18,241.692 1641.9,241.692 C1634.74,241.692 1629.46,245.098 1624.72,252.692 C1622.86,246.083 1616.91,241.692 1609.55,241.692 C1602.83,241.692 1598,244.88 1593.71,251.802 L1593.71,243.333 M1725.35,215.177 L1702.69,215.177 L1702.69,220.348 L1705.44,220.348 C1711.71,220.567 1713.8,221.333 1715.55,223.973 L1715.55,270.723 C1715.55,285.692 1713.47,288.88 1702.8,289.427 L1702.8,294.598 L1734.15,294.598 L1734.15,289.427 C1723.58,288.88 1721.5,285.692 1721.5,270.723 L1721.5,229.911 L1770.55,296.145 L1775.18,296.145 L1775.18,239.052 C1775.18,224.083 1777.27,220.895 1787.94,220.348 L1787.94,215.177 L1756.58,215.177 L1756.58,220.348 C1767.15,220.895 1769.24,223.973 1769.24,239.052 L1769.24,273.583 L1725.35,215.177 M1815.32,241.692 C1801.79,241.692 1791.33,253.677 1791.33,269.083 C1791.33,284.145 1801.9,296.255 1815.1,296.255 C1828.3,296.255 1838.86,284.145 1838.86,268.973 C1838.86,253.895 1828.3,241.692 1815.32,241.692 M1815.32,246.411 C1823.02,246.411 1827.3,254.442 1827.3,268.973 C1827.3,283.598 1823.02,291.52 1815.1,291.52 C1807.18,291.52 1802.9,283.598 1802.9,269.083 C1802.9,254.114 1807.07,246.411 1815.32,246.411 M1861.94,243.333 L1861.94,221.552 L1857.43,221.552 C1856.33,235.864 1851.49,243.114 1842.58,243.786 L1842.58,248.067 L1851.6,248.067 L1851.6,276.114 C1851.6,283.817 1851.82,286.567 1852.91,289.098 C1854.68,293.723 1859.08,296.255 1865.46,296.255 C1875.36,296.255 1881.74,288.77 1881.74,277.114 C1881.74,276.442 1881.74,275.677 1881.63,274.583 L1877,274.583 C1876.68,284.473 1873.82,289.536 1868.43,289.536 C1865.9,289.536 1863.69,288.223 1862.93,286.348 C1862.27,284.802 1861.94,282.052 1861.94,278.098 L1861.94,248.067 L1878.11,248.067 L1878.11,243.333 L1861.94,243.333 M1935.75,269.848 C1935.86,253.348 1926.5,241.692 1913.08,241.692 C1899,241.692 1888.44,253.895 1888.44,270.395 C1888.44,285.911 1898.46,296.255 1913.3,296.255 C1923.86,296.255 1931.24,291.083 1935.75,280.63 L1931.9,278.536 C1927.4,287.005 1922.77,290.302 1915.4,290.302 C1909.79,290.302 1905.72,288.005 1902.86,283.052 C1900.88,279.755 1900,275.895 1900.11,269.848 L1935.75,269.848 M1900.22,265.114 C1900.22,257.411 1903.74,246.411 1912.97,246.411 C1919.58,246.411 1923.97,252.255 1923.97,261.161 C1923.97,264.239 1922.99,265.114 1919.47,265.114 L1900.22,265.114 M1982.5,242.13 L1978.65,242.13 L1975.46,246.083 C1971.5,243.005 1967.54,241.692 1962.04,241.692 C1952.36,241.692 1945.97,247.958 1945.97,257.645 C1945.97,267.973 1952.69,270.614 1961.49,272.708 L1967.32,274.036 C1976,276.114 1979.08,278.317 1979.08,282.723 C1979.08,287.895 1974.58,291.52 1968.19,291.52 C1958.85,291.52 1952.25,285.583 1949.61,274.583 L1945.21,274.583 L1945.21,295.364 L1949.05,295.364 L1952.91,290.864 C1957.41,294.489 1962.36,296.255 1967.97,296.255 C1978.75,296.255 1985.91,289.536 1985.91,279.302 C1985.91,274.473 1984.36,270.723 1981.29,268.192 C1978.65,265.895 1976.44,265.005 1969.74,263.583 L1964.24,262.364 C1958.19,261.052 1958.19,261.052 1956.21,259.942 C1953.79,258.848 1952.36,256.536 1952.36,254.114 C1952.36,249.614 1956.54,246.536 1962.58,246.536 C1971.61,246.536 1976,252.911 1978.65,260.614 L1982.5,260.614 L1982.5,242.13 "
     id="path146" />
  <path
     class="Text"
     d="M2639.9,435.895 L2637.71,435.895 C2636.05,444.895 2633.8,447.098 2626.05,447.255 L2623.94,447.255 C2620.94,447.145 2620.19,446.645 2620.35,444.848 L2620.35,419.645 C2620.35,417.145 2620.35,416.989 2620.65,416.552 C2621.05,416.052 2622,415.895 2624.85,415.848 L2625.75,415.848 L2625.75,413.489 L2609.35,413.489 L2609.35,415.848 L2610.25,415.848 C2613.1,415.895 2614.05,416.052 2614.44,416.552 C2614.75,416.989 2614.75,417.098 2614.75,419.645 L2614.75,443.442 C2614.75,446.005 2614.75,446.098 2614.44,446.552 C2614.05,447.052 2613.1,447.255 2610.25,447.255 L2609.35,447.255 L2609.35,449.598 L2638.85,449.598 L2639.9,435.895 M2667.9,413.192 L2666.05,413.192 L2664.05,416.192 C2661.65,413.942 2658.5,412.739 2654.94,412.739 C2648.35,412.739 2644,416.895 2644,423.192 C2644,428.645 2646.69,431.348 2654.05,433.255 L2658.8,434.442 C2662.5,435.395 2662.85,435.505 2663.9,436.302 C2665.4,437.442 2666.21,439.098 2666.21,441.052 C2666.21,443.052 2665.44,444.692 2663.94,446.098 C2662.3,447.505 2660.65,448.052 2657.9,448.052 C2650.35,448.052 2646.6,442.505 2645.3,435.755 L2643.15,435.755 L2643.35,450.005 L2645.3,450.005 L2647.55,446.598 C2650.9,449.348 2653.65,450.348 2658.05,450.348 C2665.4,450.348 2670.1,446.052 2670.1,439.348 C2670.1,436.192 2669.1,433.598 2667.1,431.692 C2665.75,430.395 2663.8,429.552 2659.8,428.552 L2654.44,427.192 C2650,426.052 2647.9,424.098 2647.9,421.052 C2647.9,417.552 2650.75,415.145 2655,415.145 C2661.44,415.145 2665,420.489 2666.35,426.192 L2668.5,426.192 L2667.9,413.192 M2674.05,449.598 L2690.85,449.598 C2695.3,449.598 2698.71,448.895 2701.35,447.395 C2706.4,444.552 2709.21,438.848 2709.21,431.348 C2709.21,424.442 2706.71,419.052 2702.1,416.052 C2699.35,414.302 2695.65,413.489 2689.94,413.489 L2674.05,413.489 L2674.05,415.848 L2675,415.848 C2677.8,415.895 2678.75,416.052 2679.15,416.552 C2679.44,416.989 2679.44,417.098 2679.44,419.645 L2679.44,443.442 C2679.44,446.005 2679.44,446.098 2679.15,446.552 C2678.75,447.052 2677.8,447.192 2675,447.255 L2674.05,447.255 L2674.05,449.598 M2687.9,447.255 C2685.35,447.255 2685.05,446.942 2685.05,444.505 L2685.05,418.645 C2685.05,416.192 2685.4,415.848 2687.9,415.848 L2690.5,415.848 C2699.05,415.848 2702.6,420.489 2702.6,431.552 C2702.6,442.755 2699.4,447.255 2691.3,447.255 L2687.9,447.255 M2724.19,425.552 C2718.05,425.552 2713.3,431.005 2713.3,438.005 C2713.3,444.848 2718.1,450.348 2724.1,450.348 C2730.1,450.348 2734.9,444.848 2734.9,437.942 C2734.9,431.098 2730.1,425.552 2724.19,425.552 M2724.19,427.692 C2727.69,427.692 2729.65,431.348 2729.65,437.942 C2729.65,444.598 2727.69,448.192 2724.1,448.192 C2720.5,448.192 2718.55,444.598 2718.55,438.005 C2718.55,431.192 2720.44,427.692 2724.19,427.692 M2746.4,445.895 C2743.65,445.848 2743.5,445.802 2742.9,445.442 C2742.55,445.255 2742.3,444.692 2742.3,444.145 C2742.3,442.645 2743.65,442.005 2747,441.895 C2751.69,441.802 2752.44,441.692 2754.15,440.942 C2757.15,439.598 2758.8,437.005 2758.8,433.692 C2758.8,431.692 2758.35,430.442 2757,428.802 C2757.85,427.895 2758.3,427.598 2758.69,427.598 C2758.94,427.598 2759.1,427.755 2759.19,428.302 C2759.4,429.505 2760.19,430.145 2761.44,430.145 C2762.75,430.145 2763.71,429.098 2763.71,427.755 C2763.71,426.052 2762.35,424.848 2760.4,424.848 C2758.8,424.848 2757.9,425.348 2755.6,427.442 C2753.5,426.052 2751.9,425.552 2749.4,425.552 C2743.44,425.552 2739.55,428.848 2739.55,433.848 C2739.55,436.802 2741.15,439.302 2743.75,440.552 C2740.4,441.302 2739,442.802 2739,445.552 C2739,447.755 2740,449.052 2742.35,449.848 C2739.25,451.005 2737.75,452.552 2737.75,454.598 C2737.75,456.098 2738.75,457.505 2740.35,458.348 C2742.3,459.348 2744.69,459.755 2748.3,459.755 C2756.65,459.755 2760.8,457.098 2760.8,451.848 C2760.8,449.348 2759.65,447.348 2757.85,446.598 C2756.5,446.098 2754.9,445.895 2751.5,445.895 L2746.4,445.895 M2749.35,427.692 C2752.44,427.692 2754.19,429.848 2754.19,433.755 C2754.19,437.645 2752.3,440.005 2749.15,440.005 C2746.05,440.005 2744.1,437.645 2744.1,433.895 C2744.1,429.942 2746,427.692 2749.35,427.692 M2748.9,450.192 C2753.05,450.192 2753.35,450.192 2754.05,450.302 C2756.1,450.505 2757.3,451.598 2757.3,453.192 C2757.3,456.052 2754.05,457.692 2748.5,457.692 C2744.25,457.692 2741.9,456.442 2741.9,454.192 C2741.9,452.552 2742.8,451.442 2745.19,450.192 L2748.9,450.192 "
     id="path148" />
  <path
     class="MeasureNumber"
     d="M217.911,1030.01 C218.598,1026.48 219.395,1024.29 220.911,1021.6 C222.723,1018.45 224.88,1016.84 227.27,1016.84 C228.52,1016.84 229.27,1017.32 229.27,1018.09 C229.27,1018.37 229.192,1018.52 228.911,1019.04 C228.552,1019.73 228.395,1020.2 228.395,1020.8 C228.395,1022.09 229.348,1022.96 230.708,1022.96 C232.348,1022.96 233.473,1021.76 233.473,1019.96 C233.473,1017.24 230.911,1015.24 227.348,1015.24 C218.442,1015.24 213.036,1026.88 213.036,1034.55 C213.036,1040.45 215.958,1043.99 220.833,1043.99 C226.833,1043.99 231.27,1039.04 231.27,1033.16 C231.27,1029.09 228.52,1026.24 224.52,1026.24 C221.723,1026.24 219.552,1027.45 217.911,1030.01 M223.239,1028.55 C225.723,1028.55 227.083,1030.27 227.083,1033.4 C227.083,1038.48 224.395,1042.35 220.833,1042.35 C218.27,1042.35 216.755,1040.48 216.755,1037.27 C216.755,1032.27 219.52,1028.55 223.239,1028.55"
     id="path150" />
  <path
     class="MeasureNumber"
     d="M231.989,2051.92 L230.958,2053.76 C229.348,2056.53 229.036,2056.76 226.989,2056.79 L217.723,2056.79 C218.677,2055.53 220.442,2054.04 223.63,2051.79 C228.911,2048.17 229.27,2047.92 230.395,2047.04 C233.598,2044.56 234.911,2042.2 234.911,2039.04 C234.911,2034.84 231.802,2032.04 227.192,2032.04 C222.083,2032.04 217.645,2035.81 217.645,2040.17 C217.645,2042.4 218.833,2043.84 220.755,2043.84 C222.192,2043.84 223.317,2042.76 223.317,2041.28 C223.317,2040.25 222.802,2039.56 221.473,2038.84 C220.52,2038.35 220.364,2038.17 220.364,2037.68 C220.364,2035.96 223.317,2034.04 226.036,2034.04 C228.833,2034.04 230.723,2035.92 230.723,2038.73 C230.723,2041.71 229.395,2043.92 225.802,2047.04 C215.161,2056.28 213.552,2057.96 213.192,2060.2 L230.348,2060.2 L233.442,2052.48 L231.989,2051.92 M257.083,2031.89 L254.911,2031.89 L236.286,2051.17 L236.286,2052.84 L247.552,2052.84 L246.911,2055.28 C246.114,2058.32 246.114,2058.32 242.63,2058.32 L241.911,2058.32 L241.677,2060.2 L254.114,2060.2 L254.317,2058.32 L253.598,2058.32 C250.958,2058.32 250.395,2058.12 250.395,2057.25 C250.395,2056.92 250.473,2056.53 250.802,2055.28 L251.473,2052.84 L256.036,2052.84 L256.63,2050.68 L252.036,2050.68 L257.083,2031.89 M248.161,2050.68 L239.192,2050.68 L251.552,2037.96 L248.161,2050.68 "
     id="path152" />
  <path
     class="MeasureNumber"
     d="M229.958,1523.49 L228.802,1523.49 C226.598,1525.13 222.364,1526.52 219.473,1526.52 L219.005,1528.28 L221.755,1528.28 C224.192,1528.28 224.473,1528.36 224.473,1529.08 C224.473,1529.44 224.473,1529.44 224.083,1530.88 L219.802,1546.88 C219.27,1548.88 219.239,1549 218.88,1549.36 C218.473,1549.75 217.63,1549.88 215.52,1549.92 L213.802,1549.92 L213.598,1551.8 L228.395,1551.8 L228.63,1549.92 L226.473,1549.92 C223.88,1549.92 223.317,1549.72 223.317,1548.85 C223.317,1548.56 223.473,1547.64 223.677,1546.88 L229.958,1523.49 M250.989,1543.52 L249.958,1545.36 C248.348,1548.13 248.036,1548.36 245.989,1548.39 L236.723,1548.39 C237.677,1547.13 239.442,1545.64 242.63,1543.39 C247.911,1539.77 248.27,1539.52 249.395,1538.64 C252.598,1536.16 253.911,1533.8 253.911,1530.64 C253.911,1526.44 250.802,1523.64 246.192,1523.64 C241.083,1523.64 236.645,1527.41 236.645,1531.77 C236.645,1534 237.833,1535.44 239.755,1535.44 C241.192,1535.44 242.317,1534.36 242.317,1532.88 C242.317,1531.85 241.802,1531.16 240.473,1530.44 C239.52,1529.95 239.364,1529.77 239.364,1529.28 C239.364,1527.56 242.317,1525.64 245.036,1525.64 C247.833,1525.64 249.723,1527.52 249.723,1530.33 C249.723,1533.31 248.395,1535.52 244.802,1538.64 C234.161,1547.88 232.552,1549.56 232.192,1551.8 L249.348,1551.8 L252.442,1544.08 L250.989,1543.52 "
     id="path154" />
  <polyline
     class="BarLine"
     fill="none"
     stroke="#000000"
     stroke-width="4.46"
     stroke-linejoin="bevel"
     points="499.368,1600.03 499.368,1701.96"
     id="polyline156" />
  <polyline
     class="BarLine"
     fill="none"
     stroke="#000000"
     stroke-width="4.46"
     stroke-linejoin="bevel"
     points="599.379,2108.43 599.379,2210.36"
     id="polyline158" />
  <polyline
     class="BarLine"
     fill="none"
     stroke="#000000"
     stroke-width="4.46"
     stroke-linejoin="bevel"
     points="1322.28,1600.03 1322.28,1701.96"
     id="polyline160" />
  <polyline
     class="BarLine"
     fill="none"
     stroke="#000000"
     stroke-width="4.46"
     stroke-linejoin="bevel"
     points="1210.86,2108.43 1210.86,2210.36"
     id="polyline162" />
  <polyline
     class="BarLine"
     fill="none"
     stroke="#000000"
     stroke-width="4.46"
     stroke-linejoin="bevel"
     points="1116.55,1600.03 1116.55,1701.96"
     id="polyline164" />
  <polyline
     class="BarLine"
     fill="none"
     stroke="#000000"
     stroke-width="4.46"
     stroke-linejoin="bevel"
     points="740.87,583.234 740.87,685.162"
     id="polyline166" />
  <polyline
     class="BarLine"
     fill="none"
     stroke="#000000"
     stroke-width="4.46"
     stroke-linejoin="bevel"
     points="2262.48,1091.63 2262.48,1193.56"
     id="polyline168" />
  <polyline
     class="BarLine"
     fill="none"
     stroke="#000000"
     stroke-width="4.46"
     stroke-linejoin="bevel"
     points="2762.37,583.234 2762.37,685.162"
     id="polyline170" />
  <polyline
     class="BarLine"
     fill="none"
     stroke="#000000"
     stroke-width="4.46"
     stroke-linejoin="bevel"
     points="909.489,1091.63 909.489,1193.56"
     id="polyline172" />
  <polyline
     class="BarLine"
     fill="none"
     stroke="#000000"
     stroke-width="4.46"
     stroke-linejoin="bevel"
     points="2739.55,2108.43 2739.55,2210.36"
     id="polyline174" />
  <polyline
     class="BarLine"
     fill="none"
     stroke="#000000"
     stroke-width="13.64"
     stroke-linejoin="bevel"
     points="2757.78,2108.43 2757.78,2210.36"
     id="polyline176" />
  <polyline
     class="BarLine"
     fill="none"
     stroke="#000000"
     stroke-width="4.46"
     stroke-linejoin="bevel"
     points="2762.37,1600.03 2762.37,1701.96"
     id="polyline178" />
  <polyline
     class="BarLine"
     fill="none"
     stroke="#000000"
     stroke-width="4.46"
     stroke-linejoin="bevel"
     points="2556.64,1600.03 2556.64,1701.96"
     id="polyline180" />
  <polyline
     class="BarLine"
     fill="none"
     stroke="#000000"
     stroke-width="4.46"
     stroke-linejoin="bevel"
     points="2433.81,2108.43 2433.81,2210.36"
     id="polyline182" />
  <polyline
     class="BarLine"
     fill="none"
     stroke="#000000"
     stroke-width="4.46"
     stroke-linejoin="bevel"
     points="2762.37,1091.63 2762.37,1193.56"
     id="polyline184" />
  <polyline
     class="BarLine"
     fill="none"
     stroke="#000000"
     stroke-width="4.46"
     stroke-linejoin="bevel"
     points="1925.62,583.234 1925.62,685.162"
     id="polyline186" />
  <polyline
     class="BarLine"
     fill="none"
     stroke="#000000"
     stroke-width="4.46"
     stroke-linejoin="bevel"
     points="1173.06,583.234 1173.06,685.162"
     id="polyline188" />
  <polyline
     class="BarLine"
     fill="none"
     stroke="#000000"
     stroke-width="4.46"
     stroke-linejoin="bevel"
     points="2350.91,1600.03 2350.91,1701.96"
     id="polyline190" />
  <polyline
     class="BarLine"
     fill="none"
     stroke="#000000"
     stroke-width="4.46"
     stroke-linejoin="bevel"
     points="2145.19,1600.03 2145.19,1701.96"
     id="polyline192" />
  <polyline
     class="BarLine"
     fill="none"
     stroke="#000000"
     stroke-width="4.46"
     stroke-linejoin="bevel"
     points="2128.08,2108.43 2128.08,2210.36"
     id="polyline194" />
  <polyline
     class="BarLine"
     fill="none"
     stroke="#000000"
     stroke-width="4.46"
     stroke-linejoin="bevel"
     points="1939.46,1600.03 1939.46,1701.96"
     id="polyline196" />
  <polyline
     class="BarLine"
     fill="none"
     stroke="#000000"
     stroke-width="4.46"
     stroke-linejoin="bevel"
     points="910.823,1600.03 910.823,1701.96"
     id="polyline198" />
  <polyline
     class="BarLine"
     fill="none"
     stroke="#000000"
     stroke-width="4.46"
     stroke-linejoin="bevel"
     points="1822.34,2108.43 1822.34,2210.36"
     id="polyline200" />
  <polyline
     class="BarLine"
     fill="none"
     stroke="#000000"
     stroke-width="4.46"
     stroke-linejoin="bevel"
     points="2512.43,1091.63 2512.43,1193.56"
     id="polyline202" />
  <polyline
     class="BarLine"
     fill="none"
     stroke="#000000"
     stroke-width="4.46"
     stroke-linejoin="bevel"
     points="1733.73,1600.03 1733.73,1701.96"
     id="polyline204" />
  <polyline
     class="BarLine"
     fill="none"
     stroke="#000000"
     stroke-width="4.46"
     stroke-linejoin="bevel"
     points="2320.57,583.234 2320.57,685.162"
     id="polyline206" />
  <polyline
     class="BarLine"
     fill="none"
     stroke="#000000"
     stroke-width="4.46"
     stroke-linejoin="bevel"
     points="1324.76,1091.63 1324.76,1193.56"
     id="polyline208" />
  <polyline
     class="BarLine"
     fill="none"
     stroke="#000000"
     stroke-width="4.46"
     stroke-linejoin="bevel"
     points="1516.6,2108.43 1516.6,2210.36"
     id="polyline210" />
  <polyline
     class="BarLine"
     fill="none"
     stroke="#000000"
     stroke-width="4.46"
     stroke-linejoin="bevel"
     points="705.095,1600.03 705.095,1701.96"
     id="polyline212" />
  <polyline
     class="BarLine"
     fill="none"
     stroke="#000000"
     stroke-width="4.46"
     stroke-linejoin="bevel"
     points="1528,1600.03 1528,1701.96"
     id="polyline214" />
  <polyline
     class="BarLine"
     fill="none"
     stroke="#000000"
     stroke-width="4.46"
     stroke-linejoin="bevel"
     points="1787.42,1091.63 1787.42,1193.56"
     id="polyline216" />
  <polyline
     class="BarLine"
     fill="none"
     stroke="#000000"
     stroke-width="4.46"
     stroke-linejoin="bevel"
     points="905.119,2108.43 905.119,2210.36"
     id="polyline218" />
  <polyline
     class="Stem"
     fill="none"
     stroke="#000000"
     stroke-width="2.48"
     stroke-linejoin="bevel"
     points="1650.59,1138.63 1650.59,1062.2"
     id="polyline220" />
  <polyline
     class="Stem"
     fill="none"
     stroke="#000000"
     stroke-width="2.48"
     stroke-linejoin="bevel"
     points="1852.89,1138.63 1852.89,1062.2"
     id="polyline222" />
  <polyline
     class="Stem"
     fill="none"
     stroke="#000000"
     stroke-width="2.48"
     stroke-linejoin="bevel"
     points="1923.71,1138.63 1923.71,1080.6"
     id="polyline224" />
  <polyline
     class="Stem"
     fill="none"
     stroke="#000000"
     stroke-width="2.48"
     stroke-linejoin="bevel"
     points="2113.25,1138.63 2113.25,1080.6"
     id="polyline226" />
  <polyline
     class="Stem"
     fill="none"
     stroke="#000000"
     stroke-width="2.48"
     stroke-linejoin="bevel"
     points="806.335,630.23 806.335,572.198"
     id="polyline228" />
  <polyline
     class="Stem"
     fill="none"
     stroke="#000000"
     stroke-width="2.48"
     stroke-linejoin="bevel"
     points="2208.03,1138.63 2208.03,1062.2"
     id="polyline230" />
  <polyline
     class="Stem"
     fill="none"
     stroke="#000000"
     stroke-width="2.48"
     stroke-linejoin="bevel"
     points="960.783,630.23 960.783,572.198"
     id="polyline232"
     inkscape:export-filename="..\..\..\GameCreation\BeatRandom\image\note\4.svg"
     inkscape:export-xdpi="192"
     inkscape:export-ydpi="192" />
  <polyline
     class="Stem"
     fill="none"
     stroke="#000000"
     stroke-width="2.48"
     stroke-linejoin="bevel"
     points="1063.75,630.23 1063.75,572.198"
     id="polyline234"
     inkscape:export-filename="..\..\..\GameCreation\BeatRandom\image\note\8x2.svg"
     inkscape:export-xdpi="192"
     inkscape:export-ydpi="192" />
  <polyline
     class="Stem"
     fill="none"
     stroke="#000000"
     stroke-width="2.48"
     stroke-linejoin="bevel"
     points="1132.39,630.23 1132.39,572.198"
     id="polyline236" />
  <polyline
     class="Stem"
     fill="none"
     stroke="#000000"
     stroke-width="2.48"
     stroke-linejoin="bevel"
     points="1238.53,630.23 1238.53,559.798"
     id="polyline238"
     inkscape:export-filename="..\..\..\GameCreation\BeatRandom\image\note\16x4.svg"
     inkscape:export-xdpi="192"
     inkscape:export-ydpi="192" />
  <polyline
     class="Stem"
     fill="none"
     stroke="#000000"
     stroke-width="2.48"
     stroke-linejoin="bevel"
     points="1284.29,630.23 1284.29,559.798"
     id="polyline240" />
  <polyline
     class="Stem"
     fill="none"
     stroke="#000000"
     stroke-width="2.48"
     stroke-linejoin="bevel"
     points="1330.05,630.23 1330.05,559.798"
     id="polyline242" />
  <polyline
     class="Stem"
     fill="none"
     stroke="#000000"
     stroke-width="2.48"
     stroke-linejoin="bevel"
     points="1991.09,630.23 1991.09,572.198"
     id="polyline244"
     transform="translate(-124.726,144.45601)" />
  <polyline
     class="Stem"
     fill="none"
     stroke="#000000"
     stroke-width="2.48"
     stroke-linejoin="bevel"
     points="1375.81,630.23 1375.81,559.798"
     id="polyline246" />
  <polyline
     class="Stem"
     fill="none"
     stroke="#000000"
     stroke-width="2.48"
     stroke-linejoin="bevel"
     points="1421.58,630.23 1421.58,559.798"
     id="polyline248" />
  <polyline
     class="Stem"
     fill="none"
     stroke="#000000"
     stroke-width="2.48"
     stroke-linejoin="bevel"
     points="1467.34,630.23 1467.34,559.798"
     id="polyline250" />
  <polyline
     class="Stem"
     fill="none"
     stroke="#000000"
     stroke-width="2.48"
     stroke-linejoin="bevel"
     points="1525.92,630.23 1525.92,559.798"
     id="polyline252" />
  <polyline
     class="Stem"
     fill="none"
     stroke="#000000"
     stroke-width="2.48"
     stroke-linejoin="bevel"
     points="1594.56,630.23 1594.56,559.798"
     id="polyline254" />
  <polyline
     class="Stem"
     fill="none"
     stroke="#000000"
     stroke-width="2.48"
     stroke-linejoin="bevel"
     points="1663.21,630.23 1663.21,559.798"
     id="polyline256" />
  <polyline
     class="Stem"
     fill="none"
     stroke="#000000"
     stroke-width="2.48"
     stroke-linejoin="bevel"
     points="1708.97,630.23 1708.97,559.798"
     id="polyline258" />
  <polyline
     class="Stem"
     fill="none"
     stroke="#000000"
     stroke-width="2.48"
     stroke-linejoin="bevel"
     points="1754.73,630.23 1754.73,559.798"
     id="polyline260" />
  <polyline
     class="Stem"
     fill="none"
     stroke="#000000"
     stroke-width="2.48"
     stroke-linejoin="bevel"
     points="1816.31,630.23 1816.31,559.798"
     id="polyline262" />
  <polyline
     class="Stem"
     fill="none"
     stroke="#000000"
     stroke-width="2.48"
     stroke-linejoin="bevel"
     points="1884.95,630.23 1884.95,559.798"
     id="polyline264" />
  <polyline
     class="Stem"
     fill="none"
     stroke="#000000"
     stroke-width="2.48"
     stroke-linejoin="bevel"
     points="2045.24,630.23 2045.24,572.198"
     id="polyline266"
     transform="translate(-124.726,144.45601)" />
  <polyline
     class="Stem"
     fill="none"
     stroke="#000000"
     stroke-width="2.48"
     stroke-linejoin="bevel"
     points="2099.39,630.23 2099.39,572.198"
     id="polyline268"
     transform="translate(-124.726,144.45601)" />
  <polyline
     class="Stem"
     fill="none"
     stroke="#000000"
     stroke-width="2.48"
     stroke-linejoin="bevel"
     points="2153.54,630.23 2153.54,572.198"
     id="polyline270" />
  <polyline
     class="Stem"
     fill="none"
     stroke="#000000"
     stroke-width="2.48"
     stroke-linejoin="bevel"
     points="2386.03,630.23 2386.03,572.198"
     id="polyline272"
     inkscape:export-filename="..\..\..\GameCreation\BeatRandom\image\note\4..svg"
     inkscape:export-xdpi="192"
     inkscape:export-ydpi="192" />
  <polyline
     class="Stem"
     fill="none"
     stroke="#000000"
     stroke-width="2.48"
     stroke-linejoin="bevel"
     points="359.104,1138.63 359.104,1068.2"
     id="polyline274" />
  <polyline
     class="Stem"
     fill="none"
     stroke="#000000"
     stroke-width="2.48"
     stroke-linejoin="bevel"
     points="1045.77,1138.63 1045.77,1080.6"
     id="polyline276" />
  <polyline
     class="Stem"
     fill="none"
     stroke="#000000"
     stroke-width="2.48"
     stroke-linejoin="bevel"
     points="439.198,1138.63 439.198,1068.2"
     id="polyline278" />
  <polyline
     class="Stem"
     fill="none"
     stroke="#000000"
     stroke-width="2.48"
     stroke-linejoin="bevel"
     points="483.83,1138.63 483.83,1068.2"
     id="polyline280"
     transform="translate(-124.726,125.36001)" />
  <polyline
     class="Stem"
     fill="none"
     stroke="#000000"
     stroke-width="2.48"
     stroke-linejoin="bevel"
     points="528.463,1138.63 528.463,1068.2"
     id="polyline282"
     transform="translate(-89.257,125.36001)" />
  <polyline
     class="Stem"
     fill="none"
     stroke="#000000"
     stroke-width="2.48"
     stroke-linejoin="bevel"
     points="608.556,1138.63 608.556,1068.2"
     id="polyline284"
     inkscape:export-filename="..\..\..\GameCreation\BeatRandom\image\note\16x2-8rest.svg"
     inkscape:export-xdpi="192"
     inkscape:export-ydpi="192" />
  <polyline
     class="Stem"
     fill="none"
     stroke="#000000"
     stroke-width="2.48"
     stroke-linejoin="bevel"
     points="653.189,1138.63 653.189,1068.2"
     id="polyline286" />
  <polyline
     class="Stem"
     fill="none"
     stroke="#000000"
     stroke-width="2.48"
     stroke-linejoin="bevel"
     points="824.184,1138.63 824.184,1068.2"
     id="polyline288"
     transform="translate(-175.83948,120.80616)"
     inkscape:export-filename="..\..\..\GameCreation\BeatRandom\image\note\8rest-16x2.svg"
     inkscape:export-xdpi="192"
     inkscape:export-ydpi="192" />
  <polyline
     class="Stem"
     fill="none"
     stroke="#000000"
     stroke-width="2.48"
     stroke-linejoin="bevel"
     points="868.817,1138.63 868.817,1068.2"
     id="polyline290"
     transform="translate(-175.83948,120.80616)" />
  <polyline
     class="Stem"
     fill="none"
     stroke="#000000"
     stroke-width="2.48"
     stroke-linejoin="bevel"
     points="974.953,1138.63 974.953,1062.2"
     id="polyline292"
     inkscape:export-filename="8.svg"
     inkscape:export-xdpi="192"
     inkscape:export-ydpi="192" />
  <polyline
     class="Stem"
     fill="none"
     stroke="#000000"
     stroke-width="2.48"
     stroke-linejoin="bevel"
     points="2018.48,1138.63 2018.48,1080.6"
     id="polyline294" />
  <polyline
     class="Stem"
     fill="none"
     stroke="#000000"
     stroke-width="2.48"
     stroke-linejoin="bevel"
     points="1140.54,1138.63 1140.54,1062.2"
     id="polyline296" />
  <polyline
     class="Stem"
     fill="none"
     stroke="#000000"
     stroke-width="2.48"
     stroke-linejoin="bevel"
     points="1390.23,1138.63 1390.23,1062.2"
     id="polyline298" />
  <polyline
     class="Stem"
     fill="none"
     stroke="#000000"
     stroke-width="2.48"
     stroke-linejoin="bevel"
     points="1461.05,1138.63 1461.05,1080.6"
     id="polyline300" />
  <polyline
     class="Stem"
     fill="none"
     stroke="#000000"
     stroke-width="2.48"
     stroke-linejoin="bevel"
     points="1555.82,1138.63 1555.82,1080.6"
     id="polyline302" />
  <path
     class="Note"
     transform="matrix(0.992,0,0,0.992,1619.6,1142.6)"
     d="M0,4.20313 C0,8.5 3.09375,13.2969 11.2031,13.2969 C21.5938,13.2969 32.5,4.79688 32.5,-4 C32.5,-9.90625 27.5,-13.2031 21.2969,-13.2031 C11.5938,-13.2031 0,-5 0,4.20313"
     id="path304" />
  <path
     class="Note"
     transform="matrix(0.992,0,0,0.992,408.206,1142.6)"
     d="M0,4.20313 C0,8.5 3.09375,13.2969 11.2031,13.2969 C21.5938,13.2969 32.5,4.79688 32.5,-4 C32.5,-9.90625 27.5,-13.2031 21.2969,-13.2031 C11.5938,-13.2031 0,-5 0,4.20313"
     id="path306" />
  <path
     class="Note"
     d="m 1889.524,782.82352 c 0,4.26249 3.069,9.02102 11.1135,9.02102 10.3075,0 21.1265,-8.43202 21.1265,-17.15853 0,-5.859 -4.96,-9.12947 -11.1135,-9.12947 -9.6255,0 -21.1265,8.13747 -21.1265,17.26698"
     id="path308"
     style="stroke-width:0.992" />
  <path
     class="Note"
     transform="matrix(0.992,0,0,0.992,504.584,634.198)"
     d="M18.7031,-13.5938 C4.90625,-13.5938 0,-6.59375 0,-0.09375 C0,6.40625 4.90625,13.4063 18.7031,13.4063 C32.5,13.4063 37.2969,6.40625 37.2969,-0.09375 C37.2969,-6.59375 32.5,-13.5938 18.7031,-13.5938 M19.5,10.2031 C16.7031,10.2031 14.7969,9.40625 13.5,6.90625 C12.2031,4.40625 10.4063,-2.09375 10.2969,-4.70313 C10.0938,-7.40625 11.0938,-9 13.5,-9.79688 C14.7031,-10.2031 16.2969,-10.4063 17.9063,-10.4063 C20.5938,-10.4063 22.4063,-9.79688 23.7969,-7.09375 C25.2031,-4.5 27.1094,2 27.1094,4.5 C27.1094,9.40625 23.5,10.2031 19.5,10.2031"
     id="path310"
     inkscape:export-filename="..\..\..\GameCreation\BeatRandom\image\note\1.svg"
     inkscape:export-xdpi="192"
     inkscape:export-ydpi="192" />
  <path
     class="Note"
     transform="matrix(0.992,0,0,0.992,775.342,634.198)"
     d="M21.2969,-13.2031 C11.5938,-13.2031 0,-5.09375 0,4.20313 C0,8.5 3.09375,13.2969 11.2031,13.2969 C21.5938,13.2969 32.5,4.79688 32.5,-4 C32.5,-9.90625 27.5,-13.2031 21.2969,-13.2031 M7.5,8.59375 C4.20313,8.59375 3.5,5.90625 3.5,5 C3.5,0.09375 20.2969,-8.5 25,-8.5 C27.4063,-8.5 29,-7.09375 29,-4.90625 C29,0.09375 12.0938,8.59375 7.5,8.59375"
     id="path312"
     inkscape:export-filename="..\..\..\GameCreation\BeatRandom\image\note\2.svg"
     inkscape:export-xdpi="192"
     inkscape:export-ydpi="192" />
  <path
     class="Note"
     transform="matrix(0.992,0,0,0.992,1359.24,1142.6)"
     d="M0,4.20313 C0,8.5 3.09375,13.2969 11.2031,13.2969 C21.5938,13.2969 32.5,4.79688 32.5,-4 C32.5,-9.90625 27.5,-13.2031 21.2969,-13.2031 C11.5938,-13.2031 0,-5 0,4.20313"
     id="path314" />
  <path
     class="Note"
     transform="matrix(0.992,0,0,0.992,1014.78,1142.6)"
     d="M0,4.20313 C0,8.5 3.09375,13.2969 11.2031,13.2969 C21.5938,13.2969 32.5,4.79688 32.5,-4 C32.5,-9.90625 27.5,-13.2031 21.2969,-13.2031 C11.5938,-13.2031 0,-5 0,4.20313"
     id="path316" />
  <path
     class="Note"
     transform="matrix(0.992,0,0,0.992,1430.05,1142.6)"
     d="M0,4.20313 C0,8.5 3.09375,13.2969 11.2031,13.2969 C21.5938,13.2969 32.5,4.79688 32.5,-4 C32.5,-9.90625 27.5,-13.2031 21.2969,-13.2031 C11.5938,-13.2031 0,-5 0,4.20313"
     id="path318" />
  <path
     class="Note"
     transform="matrix(0.992,0,0,0.992,1109.55,1142.6)"
     d="M0,4.20313 C0,8.5 3.09375,13.2969 11.2031,13.2969 C21.5938,13.2969 32.5,4.79688 32.5,-4 C32.5,-9.90625 27.5,-13.2031 21.2969,-13.2031 C11.5938,-13.2031 0,-5 0,4.20313"
     id="path320" />
  <path
     class="Note"
     transform="matrix(0.992,0,0,0.992,1524.83,1142.6)"
     d="M0,4.20313 C0,8.5 3.09375,13.2969 11.2031,13.2969 C21.5938,13.2969 32.5,4.79688 32.5,-4 C32.5,-9.90625 27.5,-13.2031 21.2969,-13.2031 C11.5938,-13.2031 0,-5 0,4.20313"
     id="path322" />
  <path
     class="Note"
     d="m 1943.674,782.82352 c 0,4.26249 3.069,9.02102 11.1135,9.02102 10.3075,0 21.1265,-8.43202 21.1265,-17.15853 0,-5.859 -4.96,-9.12947 -11.1135,-9.12947 -9.6255,0 -21.1265,8.13747 -21.1265,17.26698"
     id="path324"
     style="stroke-width:0.992" />
  <path
     class="Note"
     transform="matrix(0.992,0,0,0.992,328.112,1142.6)"
     d="M0,4.20313 C0,8.5 3.09375,13.2969 11.2031,13.2969 C21.5938,13.2969 32.5,4.79688 32.5,-4 C32.5,-9.90625 27.5,-13.2031 21.2969,-13.2031 C11.5938,-13.2031 0,-5 0,4.20313"
     id="path326" />
  <path
     class="Note"
     transform="matrix(0.992,0,0,0.992,2082.26,1142.6)"
     d="M0,4.20313 C0,8.5 3.09375,13.2969 11.2031,13.2969 C21.5938,13.2969 32.5,4.79688 32.5,-4 C32.5,-9.90625 27.5,-13.2031 21.2969,-13.2031 C11.5938,-13.2031 0,-5 0,4.20313"
     id="path328" />
  <path
     class="Note"
     transform="matrix(0.992,0,0,0.992,2355.04,634.198)"
     d="M0,4.20313 C0,8.5 3.09375,13.2969 11.2031,13.2969 C21.5938,13.2969 32.5,4.79688 32.5,-4 C32.5,-9.90625 27.5,-13.2031 21.2969,-13.2031 C11.5938,-13.2031 0,-5 0,4.20313"
     id="path330" />
  <path
     class="Note"
     d="m 661.98452,1267.5756 c 0,4.2625 3.069,9.021 11.11347,9.021 10.30758,0 21.12653,-8.432 21.12653,-17.1585 0,-5.859 -4.96,-9.1295 -11.11348,-9.1295 -9.62547,0 -21.12652,8.1375 -21.12652,17.267"
     id="path332"
     style="stroke-width:0.992" />
  <path
     class="Note"
     transform="matrix(0.992,0,0,0.992,929.79,634.198)"
     d="M0,4.20313 C0,8.5 3.09375,13.2969 11.2031,13.2969 C21.5938,13.2969 32.5,4.79688 32.5,-4 C32.5,-9.90625 27.5,-13.2031 21.2969,-13.2031 C11.5938,-13.2031 0,-5 0,4.20313"
     id="path334" />
  <path
     class="Note"
     d="M0,4.20313 C0,8.5 3.09375,13.2969 11.2031,13.2969 C21.5938,13.2969 32.5,4.79688 32.5,-4 C32.5,-9.90625 27.5,-13.2031 21.2969,-13.2031 C11.5938,-13.2031 0,-5 0,4.20313"
     id="path336"
     transform="matrix(0.992,0,0,0.992,1032.76,634.198)" />
  <path
     class="Note"
     transform="matrix(0.992,0,0,0.992,943.961,1142.6)"
     d="M0,4.20313 C0,8.5 3.09375,13.2969 11.2031,13.2969 C21.5938,13.2969 32.5,4.79688 32.5,-4 C32.5,-9.90625 27.5,-13.2031 21.2969,-13.2031 C11.5938,-13.2031 0,-5 0,4.20313"
     id="path338" />
  <path
     class="Note"
     transform="matrix(0.992,0,0,0.992,1821.9,1142.6)"
     d="M0,4.20313 C0,8.5 3.09375,13.2969 11.2031,13.2969 C21.5938,13.2969 32.5,4.79688 32.5,-4 C32.5,-9.90625 27.5,-13.2031 21.2969,-13.2031 C11.5938,-13.2031 0,-5 0,4.20313"
     id="path340" />
  <path
     class="Note"
     d="M0,4.20313 C0,8.5 3.09375,13.2969 11.2031,13.2969 C21.5938,13.2969 32.5,4.79688 32.5,-4 C32.5,-9.90625 27.5,-13.2031 21.2969,-13.2031 C11.5938,-13.2031 0,-5 0,4.20313"
     id="path342"
     transform="matrix(0.992,0,0,0.992,1101.4,634.198)" />
  <path
     class="Note"
     transform="matrix(0.992,0,0,0.992,1892.72,1142.6)"
     d="M0,4.20313 C0,8.5 3.09375,13.2969 11.2031,13.2969 C21.5938,13.2969 32.5,4.79688 32.5,-4 C32.5,-9.90625 27.5,-13.2031 21.2969,-13.2031 C11.5938,-13.2031 0,-5 0,4.20313"
     id="path344" />
  <path
     class="Note"
     transform="matrix(0.992,0,0,0.992,1207.54,634.198)"
     d="M0,4.20313 C0,8.5 3.09375,13.2969 11.2031,13.2969 C21.5938,13.2969 32.5,4.79688 32.5,-4 C32.5,-9.90625 27.5,-13.2031 21.2969,-13.2031 C11.5938,-13.2031 0,-5 0,4.20313"
     id="path346" />
  <path
     class="Note"
     transform="matrix(0.992,0,0,0.992,1987.49,1142.6)"
     d="M0,4.20313 C0,8.5 3.09375,13.2969 11.2031,13.2969 C21.5938,13.2969 32.5,4.79688 32.5,-4 C32.5,-9.90625 27.5,-13.2031 21.2969,-13.2031 C11.5938,-13.2031 0,-5 0,4.20313"
     id="path348" />
  <path
     class="Note"
     transform="matrix(0.992,0,0,0.992,1253.3,634.198)"
     d="M0,4.20313 C0,8.5 3.09375,13.2969 11.2031,13.2969 C21.5938,13.2969 32.5,4.79688 32.5,-4 C32.5,-9.90625 27.5,-13.2031 21.2969,-13.2031 C11.5938,-13.2031 0,-5 0,4.20313"
     id="path350" />
  <path
     class="Note"
     transform="matrix(0.992,0,0,0.992,1390.58,634.198)"
     d="M0,4.20313 C0,8.5 3.09375,13.2969 11.2031,13.2969 C21.5938,13.2969 32.5,4.79688 32.5,-4 C32.5,-9.90625 27.5,-13.2031 21.2969,-13.2031 C11.5938,-13.2031 0,-5 0,4.20313"
     id="path352" />
  <path
     class="Note"
     transform="matrix(0.992,0,0,0.992,1436.35,634.198)"
     d="M0,4.20313 C0,8.5 3.09375,13.2969 11.2031,13.2969 C21.5938,13.2969 32.5,4.79688 32.5,-4 C32.5,-9.90625 27.5,-13.2031 21.2969,-13.2031 C11.5938,-13.2031 0,-5 0,4.20313"
     id="path354" />
  <path
     class="Note"
     transform="matrix(0.992,0,0,0.992,1494.93,634.198)"
     d="M0,4.20313 C0,8.5 3.09375,13.2969 11.2031,13.2969 C21.5938,13.2969 32.5,4.79688 32.5,-4 C32.5,-9.90625 27.5,-13.2031 21.2969,-13.2031 C11.5938,-13.2031 0,-5 0,4.20313"
     id="path356" />
  <path
     class="Note"
     transform="matrix(0.992,0,0,0.992,2177.03,1142.6)"
     d="M0,4.20313 C0,8.5 3.09375,13.2969 11.2031,13.2969 C21.5938,13.2969 32.5,4.79688 32.5,-4 C32.5,-9.90625 27.5,-13.2031 21.2969,-13.2031 C11.5938,-13.2031 0,-5 0,4.20313"
     id="path358" />
  <path
     class="Note"
     d="m 617.35252,1267.5756 c 0,4.2625 3.069,9.021 11.11347,9.021 10.30758,0 21.12653,-8.432 21.12653,-17.1585 0,-5.859 -4.96,-9.1295 -11.11348,-9.1295 -9.62547,0 -21.12652,8.1375 -21.12652,17.267"
     id="path360"
     style="stroke-width:0.992" />
  <path
     class="Note"
     transform="matrix(0.992,0,0,0.992,1563.57,634.198)"
     d="M0,4.20313 C0,8.5 3.09375,13.2969 11.2031,13.2969 C21.5938,13.2969 32.5,4.79688 32.5,-4 C32.5,-9.90625 27.5,-13.2031 21.2969,-13.2031 C11.5938,-13.2031 0,-5 0,4.20313"
     id="path362" />
  <path
     class="Note"
     transform="matrix(0.992,0,0,0.992,1632.21,634.198)"
     d="M0,4.20313 C0,8.5 3.09375,13.2969 11.2031,13.2969 C21.5938,13.2969 32.5,4.79688 32.5,-4 C32.5,-9.90625 27.5,-13.2031 21.2969,-13.2031 C11.5938,-13.2031 0,-5 0,4.20313"
     id="path364" />
  <path
     class="Note"
     transform="matrix(0.992,0,0,0.992,1344.82,634.198)"
     d="M0,4.20313 C0,8.5 3.09375,13.2969 11.2031,13.2969 C21.5938,13.2969 32.5,4.79688 32.5,-4 C32.5,-9.90625 27.5,-13.2031 21.2969,-13.2031 C11.5938,-13.2031 0,-5 0,4.20313"
     id="path366" />
  <path
     class="Note"
     transform="matrix(0.992,0,0,0.992,622.196,1142.6)"
     d="M0,4.20313 C0,8.5 3.09375,13.2969 11.2031,13.2969 C21.5938,13.2969 32.5,4.79688 32.5,-4 C32.5,-9.90625 27.5,-13.2031 21.2969,-13.2031 C11.5938,-13.2031 0,-5 0,4.20313"
     id="path368" />
  <path
     class="Note"
     transform="matrix(0.992,0,0,0.992,1677.98,634.198)"
     d="M0,4.20313 C0,8.5 3.09375,13.2969 11.2031,13.2969 C21.5938,13.2969 32.5,4.79688 32.5,-4 C32.5,-9.90625 27.5,-13.2031 21.2969,-13.2031 C11.5938,-13.2031 0,-5 0,4.20313"
     id="path370" />
  <path
     class="Note"
     transform="matrix(0.992,0,0,0.992,1723.74,634.198)"
     d="M0,4.20313 C0,8.5 3.09375,13.2969 11.2031,13.2969 C21.5938,13.2969 32.5,4.79688 32.5,-4 C32.5,-9.90625 27.5,-13.2031 21.2969,-13.2031 C11.5938,-13.2031 0,-5 0,4.20313"
     id="path372"
     inkscape:export-filename="..\..\..\GameCreation\BeatRandom\image\note\16-8-16.svg"
     inkscape:export-xdpi="192"
     inkscape:export-ydpi="192" />
  <path
     class="Note"
     transform="matrix(0.992,0,0,0.992,577.564,1142.6)"
     d="M0,4.20313 C0,8.5 3.09375,13.2969 11.2031,13.2969 C21.5938,13.2969 32.5,4.79688 32.5,-4 C32.5,-9.90625 27.5,-13.2031 21.2969,-13.2031 C11.5938,-13.2031 0,-5 0,4.20313"
     id="path374" />
  <path
     class="Note"
     transform="matrix(0.992,0,0,0.992,1785.32,634.198)"
     d="M0,4.20313 C0,8.5 3.09375,13.2969 11.2031,13.2969 C21.5938,13.2969 32.5,4.79688 32.5,-4 C32.5,-9.90625 27.5,-13.2031 21.2969,-13.2031 C11.5938,-13.2031 0,-5 0,4.20313"
     id="path376" />
  <path
     class="Note"
     transform="matrix(0.992,0,0,0.992,2122.54,634.198)"
     d="M21.2969,-13.2031 C11.5938,-13.2031 0,-5.09375 0,4.20313 C0,8.5 3.09375,13.2969 11.2031,13.2969 C21.5938,13.2969 32.5,4.79688 32.5,-4 C32.5,-9.90625 27.5,-13.2031 21.2969,-13.2031 M7.5,8.59375 C4.20313,8.59375 3.5,5.90625 3.5,5 C3.5,0.09375 20.2969,-8.5 25,-8.5 C27.4063,-8.5 29,-7.09375 29,-4.90625 C29,0.09375 12.0938,8.59375 7.5,8.59375"
     id="path378"
     inkscape:export-filename="..\..\..\GameCreation\BeatRandom\image\note\2..svg"
     inkscape:export-xdpi="192"
     inkscape:export-ydpi="192" />
  <path
     class="Note"
     transform="matrix(0.992,0,0,0.992,1853.96,634.198)"
     d="M0,4.20313 C0,8.5 3.09375,13.2969 11.2031,13.2969 C21.5938,13.2969 32.5,4.79688 32.5,-4 C32.5,-9.90625 27.5,-13.2031 21.2969,-13.2031 C11.5938,-13.2031 0,-5 0,4.20313"
     id="path380" />
  <path
     class="Note"
     d="m 408.213,1272.1295 c 0,4.2625 3.069,9.021 11.11348,9.021 10.30757,0 21.12652,-8.432 21.12652,-17.1585 0,-5.859 -4.96,-9.1295 -11.11348,-9.1295 -9.62547,0 -21.12652,8.1375 -21.12652,17.267"
     id="path382"
     style="stroke-width:0.992" />
  <path
     class="Note"
     transform="matrix(0.992,0,0,0.992,1299.06,634.198)"
     d="M0,4.20313 C0,8.5 3.09375,13.2969 11.2031,13.2969 C21.5938,13.2969 32.5,4.79688 32.5,-4 C32.5,-9.90625 27.5,-13.2031 21.2969,-13.2031 C11.5938,-13.2031 0,-5 0,4.20313"
     id="path384" />
  <path
     class="Note"
     d="m 1835.374,782.82352 c 0,4.26249 3.069,9.02102 11.1135,9.02102 10.3075,0 21.1265,-8.43202 21.1265,-17.15853 0,-5.859 -4.96,-9.12947 -11.1135,-9.12947 -9.6255,0 -21.1265,8.13747 -21.1265,17.26698"
     id="path386"
     style="stroke-width:0.992" />
  <path
     class="Note"
     d="m 328.112,1272.1295 c 0,4.2625 3.069,9.021 11.11348,9.021 10.30757,0 21.12652,-8.432 21.12652,-17.1585 0,-5.859 -4.96,-9.1295 -11.11348,-9.1295 -9.62547,0 -21.12652,8.1375 -21.12652,17.267"
     id="path388"
     style="stroke-width:0.992" />
  <path
     class="Clef"
     transform="matrix(0.992,0,0,0.992,355.198,634.198)"
     d="M1.29688,-25.2031 C0.59375,-25.2031 0,-24.5938 0,-23.9063 L0,23.9063 C0,24.5938 0.59375,25.2031 1.29688,25.2031 L12.2969,25.2031 C13,25.2031 13.5938,24.5938 13.5938,23.9063 L13.5938,-23.9063 C13.5938,-24.5938 13,-25.2031 12.2969,-25.2031 L1.29688,-25.2031 M22.9063,-25.2031 C22.2031,-25.2031 21.5938,-24.5938 21.5938,-23.9063 L21.5938,23.9063 C21.5938,24.5938 22.2031,25.2031 22.9063,25.2031 L33.9063,25.2031 C34.6094,25.2031 35.2031,24.5938 35.2031,23.9063 L35.2031,-23.9063 C35.2031,-24.5938 34.6094,-25.2031 33.9063,-25.2031 L22.9063,-25.2031 "
     id="path390" />
  <path
     class="Clef"
     transform="matrix(0.992,0,0,0.992,231.198,2159.4)"
     d="M1.29688,-25.2031 C0.59375,-25.2031 0,-24.5938 0,-23.9063 L0,23.9063 C0,24.5938 0.59375,25.2031 1.29688,25.2031 L12.2969,25.2031 C13,25.2031 13.5938,24.5938 13.5938,23.9063 L13.5938,-23.9063 C13.5938,-24.5938 13,-25.2031 12.2969,-25.2031 L1.29688,-25.2031 M22.9063,-25.2031 C22.2031,-25.2031 21.5938,-24.5938 21.5938,-23.9063 L21.5938,23.9063 C21.5938,24.5938 22.2031,25.2031 22.9063,25.2031 L33.9063,25.2031 C34.6094,25.2031 35.2031,24.5938 35.2031,23.9063 L35.2031,-23.9063 C35.2031,-24.5938 34.6094,-25.2031 33.9063,-25.2031 L22.9063,-25.2031 "
     id="path392" />
  <path
     class="Clef"
     transform="matrix(0.992,0,0,0.992,231.198,1651)"
     d="M1.29688,-25.2031 C0.59375,-25.2031 0,-24.5938 0,-23.9063 L0,23.9063 C0,24.5938 0.59375,25.2031 1.29688,25.2031 L12.2969,25.2031 C13,25.2031 13.5938,24.5938 13.5938,23.9063 L13.5938,-23.9063 C13.5938,-24.5938 13,-25.2031 12.2969,-25.2031 L1.29688,-25.2031 M22.9063,-25.2031 C22.2031,-25.2031 21.5938,-24.5938 21.5938,-23.9063 L21.5938,23.9063 C21.5938,24.5938 22.2031,25.2031 22.9063,25.2031 L33.9063,25.2031 C34.6094,25.2031 35.2031,24.5938 35.2031,23.9063 L35.2031,-23.9063 C35.2031,-24.5938 34.6094,-25.2031 33.9063,-25.2031 L22.9063,-25.2031 "
     id="path394" />
  <path
     class="Clef"
     transform="matrix(0.992,0,0,0.992,231.198,1142.6)"
     d="M1.29688,-25.2031 C0.59375,-25.2031 0,-24.5938 0,-23.9063 L0,23.9063 C0,24.5938 0.59375,25.2031 1.29688,25.2031 L12.2969,25.2031 C13,25.2031 13.5938,24.5938 13.5938,23.9063 L13.5938,-23.9063 C13.5938,-24.5938 13,-25.2031 12.2969,-25.2031 L1.29688,-25.2031 M22.9063,-25.2031 C22.2031,-25.2031 21.5938,-24.5938 21.5938,-23.9063 L21.5938,23.9063 C21.5938,24.5938 22.2031,25.2031 22.9063,25.2031 L33.9063,25.2031 C34.6094,25.2031 35.2031,24.5938 35.2031,23.9063 L35.2031,-23.9063 C35.2031,-24.5938 34.6094,-25.2031 33.9063,-25.2031 L22.9063,-25.2031 "
     id="path396" />
  <path
     class="TimeSig"
     transform="matrix(0.992,0,0,0.992,413.525,609.398)"
     d="M20.7969,12.7031 L20.7969,20.0938 L12.5,20.0938 C11.7969,20.0938 11.0938,20.7031 11.0938,21.5 L11.0938,23.4063 C11.0938,24.2031 11.7969,24.7969 12.5,24.7969 L42.7969,24.7969 C43.6094,24.7969 44.2031,24.2031 44.2031,23.4063 L44.2031,21.5 C44.2031,20.7031 43.6094,20.0938 42.7969,20.0938 L33.9063,20.0938 L33.9063,12.7031 L42.7969,12.7031 C43.6094,12.7031 44.2031,12 44.2031,11.2031 L44.2031,9.29688 C44.2031,8.59375 43.6094,7.90625 42.7969,7.90625 L33.9063,7.90625 L33.9063,-8 C33.9063,-8.59375 33.6094,-9.09375 33.1094,-9.29688 L31.9063,-9.90625 C31.7031,-10 31.4063,-10.0938 31.2031,-10.0938 C30.9063,-10 30.5,-9.90625 30.2969,-9.70313 L21.2031,-1.40625 C20.9063,-1.09375 20.7969,-0.703125 20.7969,-0.296875 L20.7969,7.90625 L9.29688,7.90625 C9.29688,7.90625 20.4063,-4.09375 32.2031,-19.9063 C32.6094,-20.4063 32.7031,-20.9063 32.7031,-21.2969 C32.7031,-21.7969 32.5,-22.2031 32.4063,-22.2969 L30.2031,-24.5 C30,-24.7031 29.6094,-24.9063 29.2031,-24.9063 C28.6094,-24.9063 15.0938,-24.9063 14.4063,-24.9063 C13.5938,-24.9063 13.0938,-24.2969 13,-23.7031 C13,-23.7031 12.5,-16.2969 9.90625,-8.20313 C7.29688,-0.09375 4.29688,4.90625 1.70313,8.59375 C1.70313,8.59375 1.40625,9.09375 1.40625,9.70313 C1.40625,9.90625 1.40625,10.0938 1.5,10.2969 C1.90625,11 2.5,12.0938 2.5,12.0938 C2.5,12.0938 2.70313,12.7031 3.59375,12.7031 L20.7969,12.7031 "
     id="path398" />
  <path
     class="TimeSig"
     transform="matrix(0.992,0,0,0.992,413.525,658.998)"
     d="M20.7969,12.7031 L20.7969,20.0938 L12.5,20.0938 C11.7969,20.0938 11.0938,20.7031 11.0938,21.5 L11.0938,23.4063 C11.0938,24.2031 11.7969,24.7969 12.5,24.7969 L42.7969,24.7969 C43.6094,24.7969 44.2031,24.2031 44.2031,23.4063 L44.2031,21.5 C44.2031,20.7031 43.6094,20.0938 42.7969,20.0938 L33.9063,20.0938 L33.9063,12.7031 L42.7969,12.7031 C43.6094,12.7031 44.2031,12 44.2031,11.2031 L44.2031,9.29688 C44.2031,8.59375 43.6094,7.90625 42.7969,7.90625 L33.9063,7.90625 L33.9063,-8 C33.9063,-8.59375 33.6094,-9.09375 33.1094,-9.29688 L31.9063,-9.90625 C31.7031,-10 31.4063,-10.0938 31.2031,-10.0938 C30.9063,-10 30.5,-9.90625 30.2969,-9.70313 L21.2031,-1.40625 C20.9063,-1.09375 20.7969,-0.703125 20.7969,-0.296875 L20.7969,7.90625 L9.29688,7.90625 C9.29688,7.90625 20.4063,-4.09375 32.2031,-19.9063 C32.6094,-20.4063 32.7031,-20.9063 32.7031,-21.2969 C32.7031,-21.7969 32.5,-22.2031 32.4063,-22.2969 L30.2031,-24.5 C30,-24.7031 29.6094,-24.9063 29.2031,-24.9063 C28.6094,-24.9063 15.0938,-24.9063 14.4063,-24.9063 C13.5938,-24.9063 13.0938,-24.2969 13,-23.7031 C13,-23.7031 12.5,-16.2969 9.90625,-8.20313 C7.29688,-0.09375 4.29688,4.90625 1.70313,8.59375 C1.70313,8.59375 1.40625,9.09375 1.40625,9.70313 C1.40625,9.90625 1.40625,10.0938 1.5,10.2969 C1.90625,11 2.5,12.0938 2.5,12.0938 C2.5,12.0938 2.70313,12.7031 3.59375,12.7031 L20.7969,12.7031 "
     id="path400" />
  <path
     class="Rest"
     transform="matrix(0.992,0,0,0.992,2371.34,1142.6)"
     d="M1.40625,-0.5 C0.59375,-0.5 0,0.09375 0,0.90625 L0,11.7031 C0,12.5 0.59375,13.0938 1.40625,13.0938 L31.1094,13.0938 C31.9063,13.0938 32.5,12.5 32.5,11.7031 L32.5,0.90625 C32.5,0.09375 31.9063,-0.5 31.1094,-0.5 L1.40625,-0.5 "
     id="path402" />
  <path
     class="Rest"
     transform="matrix(0.992,0,0,0.992,1180.37,1142.6)"
     d="M0,-1 C0,0.40625 0,0.40625 1.40625,0.40625 L31.1094,0.40625 C32.5,0.40625 32.5,0.40625 32.5,-1 L32.5,-11.7969 C32.5,-13.2031 32.5,-13.2031 31.1094,-13.2031 L1.40625,-13.2031 C0,-13.2031 0,-13.2031 0,-11.7969 L0,-1 "
     id="path404" />
  <path
     class="Rest"
     transform="matrix(0.992,0,0,0.992,1690.42,1142.6)"
     d="M23,16.5938 C22.9063,16.5 22.7031,16.2969 22.4063,15.9063 L10.9063,1.70313 C10.7969,1.59375 10.7031,1.29688 10.7031,1.09375 C10.7031,0.796875 10.7969,0.40625 10.9063,0.203125 L21.0938,-15.2031 C21.2031,-15.4063 21.2969,-15.7031 21.2969,-15.9063 L21.2969,-16.7969 C21.2969,-17.0938 21.2031,-17.4063 21,-17.5938 L4.79688,-39.5 C4.79688,-39.5 4.40625,-40.1094 3.79688,-40.1094 C3.5,-40.1094 3.29688,-40.1094 3,-39.7969 C2.59375,-39.5 2.5,-39.1094 2.5,-38.7969 C2.5,-38.2031 2.79688,-37.7031 2.79688,-37.7031 L10.4063,-27.2969 C10.5938,-27 10.7031,-26.6094 10.7031,-26.1094 C10.7031,-25.7031 10.5938,-25.2031 10.4063,-24.9063 L0.296875,-9.5 C0.203125,-9.29688 0.09375,-8.90625 0.09375,-8.70313 L0.09375,-7.79688 C0.09375,-7.5 0.203125,-7.20313 0.40625,-7 L11.5938,6.90625 C11.2031,6.79688 10.2969,6.59375 9.09375,6.59375 C4,6.59375 0,10.7969 0,15.9063 C0,17.2969 0.296875,18.7031 1.09375,19.7969 C3.20313,23 10.7031,32.5 10.7031,32.5 C10.7031,32.5 11.2031,33.1094 11.9063,33.1094 C12.0938,33.1094 12.2969,33.1094 12.5,32.9063 C13,32.5 13.2031,32.1094 13.2031,31.7031 C13.2031,31.2969 13,31 12.9063,30.7969 C12.5938,30.2969 9.40625,24.5 9.40625,24.5 C9.40625,24.5 8.70313,23.0938 8.70313,21.2969 C8.70313,18.0938 11.0938,15.5 14.2969,15.5 C15.5938,15.5 16.7031,15.9063 17.5,16.4063 L21.4063,18.9063 C21.4063,18.9063 21.7969,19.0938 22.2031,19.0938 C22.5938,19.0938 22.9063,19 23.2031,18.5938 C23.4063,18.2969 23.5,18 23.5,17.7031 C23.5,17.4063 23.4063,17.2031 23.2031,16.9063 L23,16.5938 "
     id="path406" />
  <path
     class="Rest"
     transform="matrix(0.992,0,0,0.992,2485.56,634.198)"
     d="M26.7031,-20.2969 C26.6094,-20.2969 26.4063,-20.4063 26.2969,-20.4063 C25.7031,-20.4063 25.2031,-20.0938 25,-19.5938 C22.7031,-15 17.9063,-8.79688 12.5,-7.79688 C13.5938,-9.09375 14.2969,-10.7031 14.2969,-12.5938 C14.2969,-16.5 11.0938,-19.7031 7.20313,-19.7031 C3.20313,-19.7031 0,-16.5 0,-12.5938 C0,-7.20313 5.29688,-4.70313 10,-4.70313 C15.2969,-4.70313 18.7969,-7.20313 22.2031,-10.9063 L10.7969,24.7031 L13.5,25.5 L27.5,-18.5938 C27.6094,-18.7031 27.6094,-18.9063 27.6094,-19.0938 C27.6094,-19.5938 27.2969,-20 26.7031,-20.2969"
     id="path408"
     inkscape:export-filename="8rest.svg"
     inkscape:export-xdpi="192"
     inkscape:export-ydpi="192" />
  <path
     class="Rest"
     transform="matrix(0.992,0,0,0.992,736.133,2159.4)"
     d="M1.40625,-0.5 C0.59375,-0.5 0,0.09375 0,0.90625 L0,11.7031 C0,12.5 0.59375,13.0938 1.40625,13.0938 L31.1094,13.0938 C31.9063,13.0938 32.5,12.5 32.5,11.7031 L32.5,0.90625 C32.5,0.09375 31.9063,-0.5 31.1094,-0.5 L1.40625,-0.5 "
     id="path410" />
  <path
     class="Rest"
     transform="matrix(0.992,0,0,0.992,1409.03,1651)"
     d="M1.40625,-0.5 C0.59375,-0.5 0,0.09375 0,0.90625 L0,11.7031 C0,12.5 0.59375,13.0938 1.40625,13.0938 L31.1094,13.0938 C31.9063,13.0938 32.5,12.5 32.5,11.7031 L32.5,0.90625 C32.5,0.09375 31.9063,-0.5 31.1094,-0.5 L1.40625,-0.5 "
     id="path412" />
  <path
     class="Rest"
     transform="matrix(0.992,0,0,0.992,2554.21,634.198)"
     d="M23,16.5938 C22.9063,16.5 22.7031,16.2969 22.4063,15.9063 L10.9063,1.70313 C10.7969,1.59375 10.7031,1.29688 10.7031,1.09375 C10.7031,0.796875 10.7969,0.40625 10.9063,0.203125 L21.0938,-15.2031 C21.2031,-15.4063 21.2969,-15.7031 21.2969,-15.9063 L21.2969,-16.7969 C21.2969,-17.0938 21.2031,-17.4063 21,-17.5938 L4.79688,-39.5 C4.79688,-39.5 4.40625,-40.1094 3.79688,-40.1094 C3.5,-40.1094 3.29688,-40.1094 3,-39.7969 C2.59375,-39.5 2.5,-39.1094 2.5,-38.7969 C2.5,-38.2031 2.79688,-37.7031 2.79688,-37.7031 L10.4063,-27.2969 C10.5938,-27 10.7031,-26.6094 10.7031,-26.1094 C10.7031,-25.7031 10.5938,-25.2031 10.4063,-24.9063 L0.296875,-9.5 C0.203125,-9.29688 0.09375,-8.90625 0.09375,-8.70313 L0.09375,-7.79688 C0.09375,-7.5 0.203125,-7.20313 0.40625,-7 L11.5938,6.90625 C11.2031,6.79688 10.2969,6.59375 9.09375,6.59375 C4,6.59375 0,10.7969 0,15.9063 C0,17.2969 0.296875,18.7031 1.09375,19.7969 C3.20313,23 10.7031,32.5 10.7031,32.5 C10.7031,32.5 11.2031,33.1094 11.9063,33.1094 C12.0938,33.1094 12.2969,33.1094 12.5,32.9063 C13,32.5 13.2031,32.1094 13.2031,31.7031 C13.2031,31.2969 13,31 12.9063,30.7969 C12.5938,30.2969 9.40625,24.5 9.40625,24.5 C9.40625,24.5 8.70313,23.0938 8.70313,21.2969 C8.70313,18.0938 11.0938,15.5 14.2969,15.5 C15.5938,15.5 16.7031,15.9063 17.5,16.4063 L21.4063,18.9063 C21.4063,18.9063 21.7969,19.0938 22.2031,19.0938 C22.5938,19.0938 22.9063,19 23.2031,18.5938 C23.4063,18.2969 23.5,18 23.5,17.7031 C23.5,17.4063 23.4063,17.2031 23.2031,16.9063 L23,16.5938 "
     id="path414" />
  <path
     class="Rest"
     d="m 604.05347,1243.2716 c -0.0929,0 -0.29442,-0.1085 -0.40295,-0.1085 -0.58905,0 -1.08505,0.31 -1.28652,0.806 -2.27853,4.557 -7.03695,10.7105 -12.4,11.7025 1.08505,-1.2865 1.78252,-2.883 1.78252,-4.7585 0,-3.875 -3.17747,-7.0525 -7.03702,-7.0525 -3.968,0 -7.1455,3.1775 -7.1455,7.0525 0,5.3475 5.2545,7.8275 9.92,7.8275 5.25452,0 8.72652,-2.48 12.10547,-6.1535 l -11.31495,35.3245 2.68148,0.7905 13.888,-43.741 c 0.10852,-0.1085 0.10852,-0.31 0.10852,-0.496 0,-0.496 -0.31,-0.899 -0.89905,-1.1935"
     id="path416"
     style="stroke-width:0.992" />
  <path
     class="Rest"
     transform="matrix(0.992,0,0,0.992,1614.75,1651)"
     d="M1.40625,-0.5 C0.59375,-0.5 0,0.09375 0,0.90625 L0,11.7031 C0,12.5 0.59375,13.0938 1.40625,13.0938 L31.1094,13.0938 C31.9063,13.0938 32.5,12.5 32.5,11.7031 L32.5,0.90625 C32.5,0.09375 31.9063,-0.5 31.1094,-0.5 L1.40625,-0.5 "
     id="path418" />
  <path
     class="Rest"
     transform="matrix(0.992,0,0,0.992,2657.17,634.198)"
     d="M23,16.5938 C22.9063,16.5 22.7031,16.2969 22.4063,15.9063 L10.9063,1.70313 C10.7969,1.59375 10.7031,1.29688 10.7031,1.09375 C10.7031,0.796875 10.7969,0.40625 10.9063,0.203125 L21.0938,-15.2031 C21.2031,-15.4063 21.2969,-15.7031 21.2969,-15.9063 L21.2969,-16.7969 C21.2969,-17.0938 21.2031,-17.4063 21,-17.5938 L4.79688,-39.5 C4.79688,-39.5 4.40625,-40.1094 3.79688,-40.1094 C3.5,-40.1094 3.29688,-40.1094 3,-39.7969 C2.59375,-39.5 2.5,-39.1094 2.5,-38.7969 C2.5,-38.2031 2.79688,-37.7031 2.79688,-37.7031 L10.4063,-27.2969 C10.5938,-27 10.7031,-26.6094 10.7031,-26.1094 C10.7031,-25.7031 10.5938,-25.2031 10.4063,-24.9063 L0.296875,-9.5 C0.203125,-9.29688 0.09375,-8.90625 0.09375,-8.70313 L0.09375,-7.79688 C0.09375,-7.5 0.203125,-7.20313 0.40625,-7 L11.5938,6.90625 C11.2031,6.79688 10.2969,6.59375 9.09375,6.59375 C4,6.59375 0,10.7969 0,15.9063 C0,17.2969 0.296875,18.7031 1.09375,19.7969 C3.20313,23 10.7031,32.5 10.7031,32.5 C10.7031,32.5 11.2031,33.1094 11.9063,33.1094 C12.0938,33.1094 12.2969,33.1094 12.5,32.9063 C13,32.5 13.2031,32.1094 13.2031,31.7031 C13.2031,31.2969 13,31 12.9063,30.7969 C12.5938,30.2969 9.40625,24.5 9.40625,24.5 C9.40625,24.5 8.70313,23.0938 8.70313,21.2969 C8.70313,18.0938 11.0938,15.5 14.2969,15.5 C15.5938,15.5 16.7031,15.9063 17.5,16.4063 L21.4063,18.9063 C21.4063,18.9063 21.7969,19.0938 22.2031,19.0938 C22.5938,19.0938 22.9063,19 23.2031,18.5938 C23.4063,18.2969 23.5,18 23.5,17.7031 C23.5,17.4063 23.4063,17.2031 23.2031,16.9063 L23,16.5938 "
     id="path420"
     inkscape:export-filename="4rest.svg"
     inkscape:export-xdpi="192"
     inkscape:export-ydpi="192" />
  <path
     class="Rest"
     transform="matrix(0.992,0,0,0.992,1041.87,2159.4)"
     d="M1.40625,-0.5 C0.59375,-0.5 0,0.09375 0,0.90625 L0,11.7031 C0,12.5 0.59375,13.0938 1.40625,13.0938 L31.1094,13.0938 C31.9063,13.0938 32.5,12.5 32.5,11.7031 L32.5,0.90625 C32.5,0.09375 31.9063,-0.5 31.1094,-0.5 L1.40625,-0.5 "
     id="path422" />
  <path
     class="Rest"
     transform="matrix(0.992,0,0,0.992,1820.48,1651)"
     d="M1.40625,-0.5 C0.59375,-0.5 0,0.09375 0,0.90625 L0,11.7031 C0,12.5 0.59375,13.0938 1.40625,13.0938 L31.1094,13.0938 C31.9063,13.0938 32.5,12.5 32.5,11.7031 L32.5,0.90625 C32.5,0.09375 31.9063,-0.5 31.1094,-0.5 L1.40625,-0.5 "
     id="path424" />
  <path
     class="Rest"
     transform="matrix(0.992,0,0,0.992,791.843,1651)"
     d="M1.40625,-0.5 C0.59375,-0.5 0,0.09375 0,0.90625 L0,11.7031 C0,12.5 0.59375,13.0938 1.40625,13.0938 L31.1094,13.0938 C31.9063,13.0938 32.5,12.5 32.5,11.7031 L32.5,0.90625 C32.5,0.09375 31.9063,-0.5 31.1094,-0.5 L1.40625,-0.5 "
     id="path426" />
  <path
     class="Rest"
     transform="matrix(0.992,0,0,0.992,1347.61,2159.4)"
     d="M1.40625,-0.5 C0.59375,-0.5 0,0.09375 0,0.90625 L0,11.7031 C0,12.5 0.59375,13.0938 1.40625,13.0938 L31.1094,13.0938 C31.9063,13.0938 32.5,12.5 32.5,11.7031 L32.5,0.90625 C32.5,0.09375 31.9063,-0.5 31.1094,-0.5 L1.40625,-0.5 "
     id="path428" />
  <path
     class="Rest"
     transform="matrix(0.992,0,0,0.992,2026.21,1651)"
     d="M1.40625,-0.5 C0.59375,-0.5 0,0.09375 0,0.90625 L0,11.7031 C0,12.5 0.59375,13.0938 1.40625,13.0938 L31.1094,13.0938 C31.9063,13.0938 32.5,12.5 32.5,11.7031 L32.5,0.90625 C32.5,0.09375 31.9063,-0.5 31.1094,-0.5 L1.40625,-0.5 "
     id="path430" />
  <path
     class="Rest"
     transform="matrix(0.992,0,0,0.992,1203.3,1651)"
     d="M1.40625,-0.5 C0.59375,-0.5 0,0.09375 0,0.90625 L0,11.7031 C0,12.5 0.59375,13.0938 1.40625,13.0938 L31.1094,13.0938 C31.9063,13.0938 32.5,12.5 32.5,11.7031 L32.5,0.90625 C32.5,0.09375 31.9063,-0.5 31.1094,-0.5 L1.40625,-0.5 "
     id="path432" />
  <path
     class="Rest"
     transform="matrix(0.992,0,0,0.992,586.115,1651)"
     d="M1.40625,-0.5 C0.59375,-0.5 0,0.09375 0,0.90625 L0,11.7031 C0,12.5 0.59375,13.0938 1.40625,13.0938 L31.1094,13.0938 C31.9063,13.0938 32.5,12.5 32.5,11.7031 L32.5,0.90625 C32.5,0.09375 31.9063,-0.5 31.1094,-0.5 L1.40625,-0.5 "
     id="path434" />
  <path
     class="Rest"
     transform="matrix(0.992,0,0,0.992,2231.93,1651)"
     d="M1.40625,-0.5 C0.59375,-0.5 0,0.09375 0,0.90625 L0,11.7031 C0,12.5 0.59375,13.0938 1.40625,13.0938 L31.1094,13.0938 C31.9063,13.0938 32.5,12.5 32.5,11.7031 L32.5,0.90625 C32.5,0.09375 31.9063,-0.5 31.1094,-0.5 L1.40625,-0.5 "
     id="path436" />
  <path
     class="Rest"
     transform="matrix(0.992,0,0,0.992,1653.35,2159.4)"
     d="M1.40625,-0.5 C0.59375,-0.5 0,0.09375 0,0.90625 L0,11.7031 C0,12.5 0.59375,13.0938 1.40625,13.0938 L31.1094,13.0938 C31.9063,13.0938 32.5,12.5 32.5,11.7031 L32.5,0.90625 C32.5,0.09375 31.9063,-0.5 31.1094,-0.5 L1.40625,-0.5 "
     id="path438" />
  <path
     class="Rest"
     transform="matrix(0.992,0,0,0.992,365.508,1651)"
     d="M1.40625,-0.5 C0.59375,-0.5 0,0.09375 0,0.90625 L0,11.7031 C0,12.5 0.59375,13.0938 1.40625,13.0938 L31.1094,13.0938 C31.9063,13.0938 32.5,12.5 32.5,11.7031 L32.5,0.90625 C32.5,0.09375 31.9063,-0.5 31.1094,-0.5 L1.40625,-0.5 "
     id="path440" />
  <path
     class="Rest"
     transform="matrix(0.992,0,0,0.992,2437.66,1651)"
     d="M1.40625,-0.5 C0.59375,-0.5 0,0.09375 0,0.90625 L0,11.7031 C0,12.5 0.59375,13.0938 1.40625,13.0938 L31.1094,13.0938 C31.9063,13.0938 32.5,12.5 32.5,11.7031 L32.5,0.90625 C32.5,0.09375 31.9063,-0.5 31.1094,-0.5 L1.40625,-0.5 "
     id="path442" />
  <path
     class="Rest"
     transform="matrix(0.992,0,0,0.992,1959.09,2159.4)"
     d="M1.40625,-0.5 C0.59375,-0.5 0,0.09375 0,0.90625 L0,11.7031 C0,12.5 0.59375,13.0938 1.40625,13.0938 L31.1094,13.0938 C31.9063,13.0938 32.5,12.5 32.5,11.7031 L32.5,0.90625 C32.5,0.09375 31.9063,-0.5 31.1094,-0.5 L1.40625,-0.5 "
     id="path444" />
  <path
     class="Rest"
     transform="matrix(0.992,0,0,0.992,2264.83,2159.4)"
     d="M1.40625,-0.5 C0.59375,-0.5 0,0.09375 0,0.90625 L0,11.7031 C0,12.5 0.59375,13.0938 1.40625,13.0938 L31.1094,13.0938 C31.9063,13.0938 32.5,12.5 32.5,11.7031 L32.5,0.90625 C32.5,0.09375 31.9063,-0.5 31.1094,-0.5 L1.40625,-0.5 "
     id="path446" />
  <path
     class="Rest"
     transform="matrix(0.992,0,0,0.992,2643.39,1651)"
     d="M1.40625,-0.5 C0.59375,-0.5 0,0.09375 0,0.90625 L0,11.7031 C0,12.5 0.59375,13.0938 1.40625,13.0938 L31.1094,13.0938 C31.9063,13.0938 32.5,12.5 32.5,11.7031 L32.5,0.90625 C32.5,0.09375 31.9063,-0.5 31.1094,-0.5 L1.40625,-0.5 "
     id="path448" />
  <path
     class="Rest"
     transform="matrix(0.992,0,0,0.992,2570.57,2159.4)"
     d="M1.40625,-0.5 C0.59375,-0.5 0,0.09375 0,0.90625 L0,11.7031 C0,12.5 0.59375,13.0938 1.40625,13.0938 L31.1094,13.0938 C31.9063,13.0938 32.5,12.5 32.5,11.7031 L32.5,0.90625 C32.5,0.09375 31.9063,-0.5 31.1094,-0.5 L1.40625,-0.5 "
     id="path450" />
  <path
     class="Rest"
     transform="matrix(0.992,0,0,0.992,997.57,1651)"
     d="M1.40625,-0.5 C0.59375,-0.5 0,0.09375 0,0.90625 L0,11.7031 C0,12.5 0.59375,13.0938 1.40625,13.0938 L31.1094,13.0938 C31.9063,13.0938 32.5,12.5 32.5,11.7031 L32.5,0.90625 C32.5,0.09375 31.9063,-0.5 31.1094,-0.5 L1.40625,-0.5 "
     id="path452" />
  <path
     class="Rest"
     transform="matrix(0.992,0,0,0.992,2621.28,1142.6)"
     d="M1.40625,-0.5 C0.59375,-0.5 0,0.09375 0,0.90625 L0,11.7031 C0,12.5 0.59375,13.0938 1.40625,13.0938 L31.1094,13.0938 C31.9063,13.0938 32.5,12.5 32.5,11.7031 L32.5,0.90625 C32.5,0.09375 31.9063,-0.5 31.1094,-0.5 L1.40625,-0.5 "
     id="path454" />
  <path
     class="Rest"
     transform="matrix(0.992,0,0,0.992,666.829,1142.6)"
     d="M26.7031,-20.2969 C26.6094,-20.2969 26.4063,-20.4063 26.2969,-20.4063 C25.7031,-20.4063 25.2031,-20.0938 25,-19.5938 C22.7031,-15 17.9063,-8.79688 12.5,-7.79688 C13.5938,-9.09375 14.2969,-10.7031 14.2969,-12.5938 C14.2969,-16.5 11.0938,-19.7031 7.20313,-19.7031 C3.20313,-19.7031 0,-16.5 0,-12.5938 C0,-7.20313 5.29688,-4.70313 10,-4.70313 C15.2969,-4.70313 18.7969,-7.20313 22.2031,-10.9063 L10.7969,24.7031 L13.5,25.5 L27.5,-18.5938 C27.6094,-18.7031 27.6094,-18.9063 27.6094,-19.0938 C27.6094,-19.5938 27.2969,-20 26.7031,-20.2969"
     id="path456" />
  <path
     class="Rest"
     transform="matrix(0.992,0,0,0.992,415.514,2159.4)"
     d="M1.40625,-0.5 C0.59375,-0.5 0,0.09375 0,0.90625 L0,11.7031 C0,12.5 0.59375,13.0938 1.40625,13.0938 L31.1094,13.0938 C31.9063,13.0938 32.5,12.5 32.5,11.7031 L32.5,0.90625 C32.5,0.09375 31.9063,-0.5 31.1094,-0.5 L1.40625,-0.5 "
     id="path458" />
  <path
     class="Beam"
     fill-rule="evenodd"
     d="m 1865.124,710.45401 h 110.78 v 12.4 h -110.78 v -12.4"
     id="path460"
     inkscape:export-filename="..\..\..\GameCreation\BeatRandom\image\note\6-6-6.svg"
     inkscape:export-xdpi="192"
     inkscape:export-ydpi="192" />
  <path
     class="Beam"
     fill-rule="evenodd"
     d="m 357.86399,1187.36 h 82.582 v 12.4 h -82.582 v -12.4"
     id="path462"
     style="stroke-width:1"
     inkscape:export-filename="..\..\..\GameCreation\BeatRandom\image\note\16-8..svg"
     inkscape:export-xdpi="192"
     inkscape:export-ydpi="192" />
  <path
     class="Beam"
     fill-rule="evenodd"
     d="m 357.864,1205.96 h 27.28 v 12.4 h -27.28 v -12.4"
     id="path464" />
  <path
     class="Beam"
     fill-rule="evenodd"
     d="M1753.49,553.598 L1886.19,553.598 L1886.19,565.998 L1753.49,565.998 L1753.49,553.598 "
     id="path466" />
  <path
     class="Beam"
     fill-rule="evenodd"
     d="M1753.49,572.198 L1780.77,572.198 L1780.77,584.598 L1753.49,584.598 L1753.49,572.198 "
     id="path468" />
  <path
     class="Beam"
     fill-rule="evenodd"
     d="M1886.19,572.198 L1858.91,572.198 L1858.91,584.598 L1886.19,584.598 L1886.19,572.198 "
     id="path470" />
  <path
     class="Beam"
     fill-rule="evenodd"
     d="M607.316,1062 L654.429,1062 L654.429,1074.4 L607.316,1074.4 L607.316,1062 "
     id="path472" />
  <path
     class="Beam"
     fill-rule="evenodd"
     d="M607.316,1080.6 L654.429,1080.6 L654.429,1093 L607.316,1093 L607.316,1080.6 "
     id="path474" />
  <path
     class="Beam"
     fill-rule="evenodd"
     d="M1593.32,553.598 L1710.21,553.598 L1710.21,565.998 L1593.32,565.998 L1593.32,553.598 "
     id="path476"
     inkscape:export-filename="..\..\..\GameCreation\BeatRandom\image\note\8-16x2.svg"
     inkscape:export-xdpi="192"
     inkscape:export-ydpi="192" />
  <path
     class="Beam"
     fill-rule="evenodd"
     d="M1661.97,572.198 L1710.21,572.198 L1710.21,584.598 L1661.97,584.598 L1661.97,572.198 "
     id="path478" />
  <path
     class="Beam"
     fill-rule="evenodd"
     d="M1237.29,553.598 L1377.05,553.598 L1377.05,565.998 L1237.29,565.998 L1237.29,553.598 "
     id="path480" />
  <path
     class="Beam"
     fill-rule="evenodd"
     d="M1237.29,572.198 L1377.05,572.198 L1377.05,584.598 L1237.29,584.598 L1237.29,572.198 "
     id="path482" />
  <path
     class="Beam"
     fill-rule="evenodd"
     d="M1420.34,553.598 L1527.16,553.598 L1527.16,565.998 L1420.34,565.998 L1420.34,553.598 "
     id="path484"
     inkscape:export-filename="..\..\..\GameCreation\BeatRandom\image\note\16x2-8.svg"
     inkscape:export-xdpi="192"
     inkscape:export-ydpi="192" />
  <path
     class="Beam"
     fill-rule="evenodd"
     d="M1420.34,572.198 L1468.58,572.198 L1468.58,584.598 L1420.34,584.598 L1420.34,572.198 "
     id="path486" />
  <path
     class="Beam"
     fill-rule="evenodd"
     d="M357.864,1062 L440.438,1062 L440.438,1074.4 L357.864,1074.4 L357.864,1062 "
     id="path488" />
  <path
     class="Beam"
     fill-rule="evenodd"
     d="M440.438,1080.6 L413.158,1080.6 L413.158,1093 L440.438,1093 L440.438,1080.6 "
     id="path490"
     inkscape:export-filename="..\..\..\GameCreation\BeatRandom\image\note\8.-16.svg"
     inkscape:export-xdpi="192"
     inkscape:export-ydpi="192" />
  <path
     class="Beam"
     fill-rule="evenodd"
     d="M1062.51,565.998 L1133.63,565.998 L1133.63,578.398 L1062.51,578.398 L1062.51,565.998 "
     id="path492" />
  <path
     class="Beam"
     fill-rule="evenodd"
     d="m 647.10452,1182.8061 h 47.113 v 12.4 h -47.113 v -12.4"
     id="path494" />
  <path
     class="Beam"
     fill-rule="evenodd"
     d="m 647.10452,1201.4061 h 47.113 v 12.4 h -47.113 v -12.4"
     id="path496" />
  <path
     class="Hook"
     transform="matrix(0.992,0,0,0.992,1649.35,1062)"
     d="M0,22.7031 C0,23 0.09375,23.5938 0.796875,23.7969 C5.09375,25.2031 13.7031,30.6094 20.2031,41.7031 C22,44.7969 24.9063,49.1094 24.9063,57.4063 C24.9063,64.6094 23.0938,72 20.4063,79.2031 C20.2031,79.8125 20.0938,80.3125 20.0938,80.7031 C20.0938,81.4063 20.5,81.7031 21.2031,81.7031 C21.7969,81.7031 22.2969,81.3125 22.7031,80.6094 C27.2031,72.6094 28.9063,63.2969 28.9063,54.2031 C28.4063,41.2969 21,31.7969 21,31.7969 C21.2969,31.7969 11.7969,19.5 9.09375,15.2969 C5.40625,9.59375 3.70313,3.90625 3.5,3.5 C3.40625,3.20313 2.5,-0.40625 2.5,-0.40625 C2.40625,-0.796875 1.90625,-1.20313 1.29688,-1.20313 C0.59375,-1.20313 0,-0.59375 0,0.09375 L0,22.7031 "
     id="path498" />
  <path
     class="Hook"
     transform="matrix(0.992,0,0,0.992,2206.79,1062)"
     d="M0,22.7031 C0,23 0.09375,23.5938 0.796875,23.7969 C5.09375,25.2031 13.7031,30.6094 20.2031,41.7031 C22,44.7969 24.9063,49.1094 24.9063,57.4063 C24.9063,64.6094 23.0938,72 20.4063,79.2031 C20.2031,79.8125 20.0938,80.3125 20.0938,80.7031 C20.0938,81.4063 20.5,81.7031 21.2031,81.7031 C21.7969,81.7031 22.2969,81.3125 22.7031,80.6094 C27.2031,72.6094 28.9063,63.2969 28.9063,54.2031 C28.4063,41.2969 21,31.7969 21,31.7969 C21.2969,31.7969 11.7969,19.5 9.09375,15.2969 C5.40625,9.59375 3.70313,3.90625 3.5,3.5 C3.40625,3.20313 2.5,-0.40625 2.5,-0.40625 C2.40625,-0.796875 1.90625,-1.20313 1.29688,-1.20313 C0.59375,-1.20313 0,-0.59375 0,0.09375 L0,22.7031 "
     id="path500" />
  <path
     class="Hook"
     transform="matrix(0.992,0,0,0.992,1388.99,1062)"
     d="M0,22.7031 C0,23 0.09375,23.5938 0.796875,23.7969 C5.09375,25.2031 13.7031,30.6094 20.2031,41.7031 C22,44.7969 24.9063,49.1094 24.9063,57.4063 C24.9063,64.6094 23.0938,72 20.4063,79.2031 C20.2031,79.8125 20.0938,80.3125 20.0938,80.7031 C20.0938,81.4063 20.5,81.7031 21.2031,81.7031 C21.7969,81.7031 22.2969,81.3125 22.7031,80.6094 C27.2031,72.6094 28.9063,63.2969 28.9063,54.2031 C28.4063,41.2969 21,31.7969 21,31.7969 C21.2969,31.7969 11.7969,19.5 9.09375,15.2969 C5.40625,9.59375 3.70313,3.90625 3.5,3.5 C3.40625,3.20313 2.5,-0.40625 2.5,-0.40625 C2.40625,-0.796875 1.90625,-1.20313 1.29688,-1.20313 C0.59375,-1.20313 0,-0.59375 0,0.09375 L0,22.7031 "
     id="path502" />
  <path
     class="Hook"
     transform="matrix(0.992,0,0,0.992,973.713,1062)"
     d="M0,22.7031 C0,23 0.09375,23.5938 0.796875,23.7969 C5.09375,25.2031 13.7031,30.6094 20.2031,41.7031 C22,44.7969 24.9063,49.1094 24.9063,57.4063 C24.9063,64.6094 23.0938,72 20.4063,79.2031 C20.2031,79.8125 20.0938,80.3125 20.0938,80.7031 C20.0938,81.4063 20.5,81.7031 21.2031,81.7031 C21.7969,81.7031 22.2969,81.3125 22.7031,80.6094 C27.2031,72.6094 28.9063,63.2969 28.9063,54.2031 C28.4063,41.2969 21,31.7969 21,31.7969 C21.2969,31.7969 11.7969,19.5 9.09375,15.2969 C5.40625,9.59375 3.70313,3.90625 3.5,3.5 C3.40625,3.20313 2.5,-0.40625 2.5,-0.40625 C2.40625,-0.796875 1.90625,-1.20313 1.29688,-1.20313 C0.59375,-1.20313 0,-0.59375 0,0.09375 L0,22.7031 "
     id="path504" />
  <path
     class="Hook"
     transform="matrix(0.992,0,0,0.992,1139.3,1062)"
     d="M0,22.7031 C0,23 0.09375,23.5938 0.796875,23.7969 C5.09375,25.2031 13.7031,30.6094 20.2031,41.7031 C22,44.7969 24.9063,49.1094 24.9063,57.4063 C24.9063,64.6094 23.0938,72 20.4063,79.2031 C20.2031,79.8125 20.0938,80.3125 20.0938,80.7031 C20.0938,81.4063 20.5,81.7031 21.2031,81.7031 C21.7969,81.7031 22.2969,81.3125 22.7031,80.6094 C27.2031,72.6094 28.9063,63.2969 28.9063,54.2031 C28.4063,41.2969 21,31.7969 21,31.7969 C21.2969,31.7969 11.7969,19.5 9.09375,15.2969 C5.40625,9.59375 3.70313,3.90625 3.5,3.5 C3.40625,3.20313 2.5,-0.40625 2.5,-0.40625 C2.40625,-0.796875 1.90625,-1.20313 1.29688,-1.20313 C0.59375,-1.20313 0,-0.59375 0,0.09375 L0,22.7031 "
     id="path506" />
  <path
     class="Hook"
     transform="matrix(0.992,0,0,0.992,1851.65,1062)"
     d="M0,22.7031 C0,23 0.09375,23.5938 0.796875,23.7969 C5.09375,25.2031 13.7031,30.6094 20.2031,41.7031 C22,44.7969 24.9063,49.1094 24.9063,57.4063 C24.9063,64.6094 23.0938,72 20.4063,79.2031 C20.2031,79.8125 20.0938,80.3125 20.0938,80.7031 C20.0938,81.4063 20.5,81.7031 21.2031,81.7031 C21.7969,81.7031 22.2969,81.3125 22.7031,80.6094 C27.2031,72.6094 28.9063,63.2969 28.9063,54.2031 C28.4063,41.2969 21,31.7969 21,31.7969 C21.2969,31.7969 11.7969,19.5 9.09375,15.2969 C5.40625,9.59375 3.70313,3.90625 3.5,3.5 C3.40625,3.20313 2.5,-0.40625 2.5,-0.40625 C2.40625,-0.796875 1.90625,-1.20313 1.29688,-1.20313 C0.59375,-1.20313 0,-0.59375 0,0.09375 L0,22.7031 "
     id="path508" />
  <path
     class="Tuplet"
     d="m 1923.564,678.57901 c 2.13,-0.671 2.97,-1.046 4.05,-1.765 2.13,-1.391 3.42,-3.86 3.42,-6.391 0,-4.265 -3.42,-7.14 -8.45,-7.14 -4.91,0 -9.05,3.046 -9.05,6.75 0,1.843 1.13,3.093 2.83,3.093 1.49,0 2.58,-1.078 2.58,-2.562 0,-0.766 -0.23,-1.297 -0.95,-2.016 -0.46,-0.406 -0.63,-0.734 -0.63,-1.047 0,-1.078 2.25,-2.203 4.36,-2.203 3.02,0 4.81,1.672 4.81,4.453 0,4.016 -2.82,7.782 -5.84,7.782 -0.14,0 -0.55,-0.032 -1.03,-0.079 -1.31,-0.093 -1.31,-0.093 -1.58,-0.093 -1,0 -1.53,0.453 -1.53,1.265 0,0.719 0.5,1.157 1.3,1.157 0.23,0 0.54,-0.032 0.9,-0.079 0.63,-0.14 1.31,-0.187 1.71,-0.187 2.12,0 3.56,1.891 3.56,4.687 0,4.86 -2.39,9.532 -7.83,9.532 -2.52,0 -4.69,-1.25 -4.69,-2.703 0,-0.485 0.19,-0.672 0.91,-0.985 1.3,-0.578 1.84,-1.39 1.84,-2.609 0,-1.578 -1.26,-2.781 -2.87,-2.781 -1.94,0 -3.21,1.515 -3.21,3.859 0,4.375 3.33,7.109 8.74,7.109 6.8,0 11.97,-4.547 11.97,-10.578 0,-3.5 -2.16,-5.484 -5.32,-6.469"
     id="path510" />
  <path
     class="NoteDot"
     transform="matrix(0.992,0,0,0.992,2399.67,646.598)"
     d="M0,0 C0,2.79688 2.20313,5 5,5 C7.79688,5 10,2.79688 10,0 C10,-2.79688 7.79688,-5 5,-5 C2.20313,-5 0,-2.79688 0,0"
     id="path512" />
  <path
     class="NoteDot"
     transform="matrix(0.992,0,0,0.992,2167.18,646.598)"
     d="M0,0 C0,2.79688 2.20313,5 5,5 C7.79688,5 10,2.79688 10,0 C10,-2.79688 7.79688,-5 5,-5 C2.20313,-5 0,-2.79688 0,0"
     id="path514" />
  <path
     class="NoteDot"
     transform="matrix(0.992,0,0,0.992,372.744,1155)"
     d="M0,0 C0,2.79688 2.20313,5 5,5 C7.79688,5 10,2.79688 10,0 C10,-2.79688 7.79688,-5 5,-5 C2.20313,-5 0,-2.79688 0,0"
     id="path516" />
  <path
     class="NoteDot"
     d="m 452.846,1280.36 c 0,2.7745 2.1855,4.96 4.96,4.96 2.7745,0 4.96,-2.1855 4.96,-4.96 0,-2.7745 -2.1855,-4.96 -4.96,-4.96 -2.7745,0 -4.96,2.1855 -4.96,4.96"
     id="path518"
     style="stroke-width:0.992" />
  <metadata
     id="metadata10528">
    <rdf:RDF>
      <cc:Work
         rdf:about="">
        <dc:title>Beat Random Notes</dc:title>
      </cc:Work>
    </rdf:RDF>
  </metadata>
</svg>
